<?xml version="1.0" encoding="UTF-8" standalone="no"?>
<!-- Created with Inkscape (http://www.inkscape.org/) -->

<svg
   xmlns:dc="http://purl.org/dc/elements/1.1/"
   xmlns:cc="http://creativecommons.org/ns#"
   xmlns:rdf="http://www.w3.org/1999/02/22-rdf-syntax-ns#"
   xmlns:svg="http://www.w3.org/2000/svg"
   xmlns="http://www.w3.org/2000/svg"
   xmlns:sodipodi="http://sodipodi.sourceforge.net/DTD/sodipodi-0.dtd"
   xmlns:inkscape="http://www.inkscape.org/namespaces/inkscape"
   width="133.0025"
   height="72.136253"
   id="svg3161"
   version="1.1"
   inkscape:version="0.48.4 r9939"
   sodipodi:docname="bullet.png">
  <defs
     id="defs3163" />
  <sodipodi:namedview
     id="base"
     pagecolor="#ffffff"
     bordercolor="#666666"
     borderopacity="1.0"
     inkscape:pageopacity="0.0"
     inkscape:pageshadow="2"
     inkscape:zoom="0.35"
     inkscape:cx="375.78696"
     inkscape:cy="-455.36045"
     inkscape:document-units="px"
     inkscape:current-layer="layer1"
     showgrid="false"
     fit-margin-top="0"
     fit-margin-left="0"
     fit-margin-right="0"
     fit-margin-bottom="0"
     inkscape:window-width="1920"
     inkscape:window-height="1056"
     inkscape:window-x="0"
     inkscape:window-y="24"
     inkscape:window-maximized="1" />
  <metadata
     id="metadata3166">
    <rdf:RDF>
      <cc:Work
         rdf:about="">
        <dc:format>image/svg+xml</dc:format>
        <dc:type
           rdf:resource="http://purl.org/dc/dcmitype/StillImage" />
        <dc:title></dc:title>
      </cc:Work>
    </rdf:RDF>
  </metadata>
  <g
     inkscape:label="Layer 1"
     inkscape:groupmode="layer"
     id="layer1"
     transform="translate(0.786963,-4.865484)">
    <g
       id="g1144"
       transform="matrix(1.25,0,0,-1.25,71.346787,40.934234)">
      <path
         inkscape:connector-curvature="0"
         d="m 0,0 c 0,-15.936 -12.918,-28.854 -28.854,-28.854 -15.935,0 -28.853,12.918 -28.853,28.854 0,15.935 12.918,28.855 28.853,28.855 C -12.918,28.855 0,15.935 0,0"
         style="fill:#00b1ac;fill-opacity:1;fill-rule:nonzero;stroke:none"
         id="path1146" />
    </g>
    <g
       id="g1148"
       transform="matrix(1.25,0,0,-1.25,132.21554,40.934234)">
      <path
         inkscape:connector-curvature="0"
         d="m 0,0 c 0,-15.936 -12.92,-28.854 -28.855,-28.854 -15.934,0 -28.854,12.918 -28.854,28.854 0,15.935 12.92,28.855 28.854,28.855 C -12.92,28.855 0,15.935 0,0"
         style="fill:#f05169;fill-opacity:1;fill-rule:nonzero;stroke:none"
         id="path1150" />
    </g>
    <g
       id="g1192"
       transform="matrix(1.25,0,0,-1.25,60.079287,40.934234)">
      <path
         inkscape:connector-curvature="0"
         d="M 0,0 C 0,-5.695 1.658,-11.002 4.508,-15.477 7.357,-11.002 9.014,-5.695 9.014,0 9.014,5.697 7.357,11.004 4.508,15.476 1.658,11.004 0,5.697 0,0"
         style="fill:#41494f;fill-opacity:1;fill-rule:nonzero;stroke:none"
         id="path1194" />
    </g>
  </g>
</svg>
