<?xml version="1.0" encoding="UTF-8" standalone="no"?>
<!-- Created with Inkscape (http://www.inkscape.org/) -->

<svg
   xmlns:dc="http://purl.org/dc/elements/1.1/"
   xmlns:cc="http://creativecommons.org/ns#"
   xmlns:rdf="http://www.w3.org/1999/02/22-rdf-syntax-ns#"
   xmlns:svg="http://www.w3.org/2000/svg"
   xmlns="http://www.w3.org/2000/svg"
   xmlns:sodipodi="http://sodipodi.sourceforge.net/DTD/sodipodi-0.dtd"
   xmlns:inkscape="http://www.inkscape.org/namespaces/inkscape"
   width="476.82901"
   height="72.136253"
   id="svg3352"
   version="1.1"
   inkscape:version="0.48.4 r9939"
   sodipodi:docname="New document 6">
  <defs
     id="defs3354">
    <clipPath
       clipPathUnits="userSpaceOnUse"
       id="clipPath132">
      <path
         inkscape:connector-curvature="0"
         d="m 0,842 595.22,0 0,-842 L 0,0 0,842 z"
         id="path134" />
    </clipPath>
    <clipPath
       clipPathUnits="userSpaceOnUse"
       id="clipPath108">
      <path
         inkscape:connector-curvature="0"
         d="m 0,842 595.22,0 0,-842 L 0,0 0,842 z"
         id="path110" />
    </clipPath>
  </defs>
  <sodipodi:namedview
     id="base"
     pagecolor="#ffffff"
     bordercolor="#666666"
     borderopacity="1.0"
     inkscape:pageopacity="0.0"
     inkscape:pageshadow="2"
     inkscape:zoom="0.35"
     inkscape:cx="1133.4145"
     inkscape:cy="-1212.5033"
     inkscape:document-units="px"
     inkscape:current-layer="layer1"
     showgrid="false"
     fit-margin-top="0"
     fit-margin-left="0"
     fit-margin-right="0"
     fit-margin-bottom="0"
     inkscape:window-width="1855"
     inkscape:window-height="1056"
     inkscape:window-x="65"
     inkscape:window-y="24"
     inkscape:window-maximized="1" />
  <metadata
     id="metadata3357">
    <rdf:RDF>
      <cc:Work
         rdf:about="">
        <dc:format>image/svg+xml</dc:format>
        <dc:type
           rdf:resource="http://purl.org/dc/dcmitype/StillImage" />
        <dc:title></dc:title>
      </cc:Work>
    </rdf:RDF>
  </metadata>
  <g
     inkscape:label="Layer 1"
     inkscape:groupmode="layer"
     id="layer1"
     transform="translate(758.41451,752.27737)">
    <text
       style="font-size:14.99992943px"
       y="-715.56036"
       x="-620.4339"
       transform="scale(0.99999531,1.0000047)"
       id="text96">
      <tspan
         style="font-size:26.68237686px;font-variant:normal;font-weight:bold;font-stretch:normal;writing-mode:lr-tb;fill:#ffffff;fill-opacity:1;fill-rule:nonzero;stroke:none;font-family:Neo Sans;-inkscape-font-specification:NeoSans-Bold"
         x="-620.4339 -612.13568 -595.80609 -584.57281 -568.8302 -558.26398 -541.93439 -526.9389 -515.70563 -507.96771 -492.2518 -475.92218 -460.9267 -453.40225 -446.46484 -430.77557 -415.03299 -391.68591 -383.94803 -367.61841 -352.62292"
         y="-715.56036"
         sodipodi:role="line"
         id="tspan98">International Seminar</tspan>
    </text>
    <text
       style="font-size:14.99995041px"
       y="-695.54858"
       x="-620.43304"
       transform="scale(0.99999671,1.0000033)"
       id="text100">
      <tspan
         style="font-size:19.0588131px;font-variant:normal;font-weight:normal;font-stretch:normal;writing-mode:lr-tb;fill:#ffffff;fill-opacity:1;fill-rule:nonzero;stroke:none;font-family:Neo Sans;-inkscape-font-specification:NeoSans"
         x="-620.43304 -610.04602 -599.43024 -594.72272 -583.42084 -573.5293 -566.19165 -561.48413 -551.11615 -540.50037 -533.16272 -528.4552 -517.9729 -508.08136 -500.81995 -490.45193 -483.11432 -472.93689 -468.22937 -458.33783 -447.72208 -437.41125 -432.70374 -422.31668 -417.66632 -412.9588 -402.34305 -397.63553 -389.02094 -379.12943 -374.47906 -369.77155 -359.27014 -348.84497 -340.23038 -329.86237 -325.21204 -320.56168 -310.1937 -299.57791 -290.96335"
         y="-695.54858"
         sodipodi:role="line"
         id="tspan102">on Patient Safety and Clinical Excellence</tspan>
    </text>
    <g
       transform="matrix(1.25,0,0,-1.25,-895.88451,-174.65737)"
       id="g104">
      <g
         id="g106"
         clip-path="url(#clipPath108)">
        <g
           id="g112"
           transform="translate(167.684,433.241)">
          <path
             inkscape:connector-curvature="0"
             d="m 0,0 c 0,-15.936 -12.918,-28.854 -28.854,-28.854 -15.936,0 -28.854,12.918 -28.854,28.854 0,15.935 12.918,28.855 28.854,28.855 C -12.918,28.855 0,15.935 0,0"
             style="fill:#00b2a9;fill-opacity:1;fill-rule:nonzero;stroke:none"
             id="path114" />
        </g>
        <g
           id="g116"
           transform="translate(216.379,433.241)">
          <path
             inkscape:connector-curvature="0"
             d="m 0,0 c 0,-15.936 -12.919,-28.854 -28.855,-28.854 -15.935,0 -28.853,12.918 -28.853,28.854 0,15.935 12.918,28.855 28.853,28.855 C -12.919,28.855 0,15.935 0,0"
             style="fill:#e03e52;fill-opacity:1;fill-rule:nonzero;stroke:none"
             id="path118" />
        </g>
      </g>
    </g>
    <text
       style="font-size:14.9999218px"
       y="-698.80286"
       x="-678.67676"
       transform="scale(0.9999948,1.0000052)"
       id="text120">
      <tspan
         style="font-size:48.06912613px;font-variant:normal;font-weight:bold;font-stretch:normal;writing-mode:lr-tb;fill:#ffffff;fill-opacity:1;fill-rule:nonzero;stroke:none;font-family:Neo Sans;-inkscape-font-specification:NeoSans-Bold"
         x="-678.67676"
         y="-698.80286"
         id="tspan122">2</tspan>
    </text>
    <text
       style="font-size:14.99993134px"
       y="-723.58044"
       x="-649.49896"
       transform="scale(0.99999541,1.0000046)"
       id="text124">
      <tspan
         style="font-size:13.75006294px;font-variant:normal;font-weight:bold;font-stretch:normal;writing-mode:lr-tb;fill:#ffffff;fill-opacity:1;fill-rule:nonzero;stroke:none;font-family:Neo Sans;-inkscape-font-specification:NeoSans-Bold"
         x="-649.49896 -641.08392"
         y="-723.58044"
         sodipodi:role="line"
         id="tspan126">nd</tspan>
    </text>
    <g
       transform="matrix(1.25,0,0,-1.25,-895.88451,-174.65737)"
       id="g128">
      <g
         id="g130"
         clip-path="url(#clipPath132)">
        <g
           id="g136"
           transform="translate(146.487,429.254)">
          <path
             inkscape:connector-curvature="0"
             d="m 0,0 -2.234,11.034 c -1.623,0.504 -3.115,-2.08 -3.115,-2.08 0,0 -1.277,2.673 -1.787,2.582 -0.755,-0.137 -1.257,-0.297 -1.257,-0.297 L -10.695,0 c 1.428,-0.976 2.83,-1.449 4.125,-1.611 l 0.477,-5.836 c 0,0 2.234,0.707 2.932,6.053 C -1.242,-0.914 0,0 0,0"
             style="fill:#ffffff;fill-opacity:1;fill-rule:nonzero;stroke:none"
             id="path138" />
        </g>
        <g
           id="g140"
           transform="translate(140.253,442.325)">
          <path
             inkscape:connector-curvature="0"
             d="M 0,0 C 0.959,-0.211 2.538,0.406 2.956,1.127 3.315,1.867 2.753,3.482 1.879,4.129 0.985,4.699 -0.688,4.097 -1.17,3.013 -1.578,1.896 -0.921,0.265 0,0"
             style="fill:#ffffff;fill-opacity:1;fill-rule:nonzero;stroke:none"
             id="path142" />
        </g>
        <g
           id="g144"
           transform="translate(127.631,442.686)">
          <path
             inkscape:connector-curvature="0"
             d="M 0,0 C 0.768,-0.344 2.193,0.039 2.663,0.691 3.087,1.371 2.887,3.043 2.261,3.803 1.609,4.492 0.108,4.137 -0.475,3.137 -1.002,2.092 -0.726,0.393 0,0"
             style="fill:#ffffff;fill-opacity:1;fill-rule:nonzero;stroke:none"
             id="path146" />
        </g>
        <g
           id="g148"
           transform="translate(129.019,441.426)">
          <path
             inkscape:connector-curvature="0"
             d="m 0,0 c -3.587,0 -4.94,-1.152 -4.94,-1.152 l 0,-5.686 c 0,-2.209 1.602,-3.584 2.759,-4.293 l 0.411,-8.443 c 0,0 3.694,-0.408 3.809,8.865 2.338,1.305 2.498,3.196 2.498,3.196 l 0,5.888 C 4.537,-1.625 3.589,0 0,0"
             style="fill:#ffffff;fill-opacity:1;fill-rule:nonzero;stroke:none"
             id="path150" />
        </g>
        <g
           id="g152"
           transform="translate(117.644,433.663)">
          <path
             inkscape:connector-curvature="0"
             d="M 0,0 C 0.761,-0.34 2.174,0.039 2.641,0.687 3.062,1.363 2.864,3.021 2.242,3.777 1.596,4.461 0.107,4.107 -0.472,3.115 -0.996,2.078 -0.722,0.39 0,0"
             style="fill:#ffffff;fill-opacity:1;fill-rule:nonzero;stroke:none"
             id="path154" />
        </g>
        <g
           id="g156"
           transform="translate(118.839,433.161)">
          <path
             inkscape:connector-curvature="0"
             d="m 0,0 c -2.379,0 -2.523,-0.61 -2.523,-0.61 0,0 -0.751,-1.633 -0.751,-3.922 0,-1.462 1.062,-2.373 1.827,-2.841 l 0.272,-3.981 c 0,0 2.525,0.363 2.525,4.258 1.548,0.865 1.651,1.445 1.655,2.117 C 3.009,-3.86 2.202,-0.565 2.202,-0.565 2.202,-0.565 1.119,0 0,0"
             style="fill:#ffffff;fill-opacity:1;fill-rule:nonzero;stroke:none"
             id="path158" />
        </g>
        <g
           id="g160"
           transform="translate(152.463,433.161)">
          <path
             inkscape:connector-curvature="0"
             d="m 0,0 c -2.377,0 -2.523,-0.61 -2.523,-0.61 0,0 -0.752,-4.023 -0.752,-6.31 0,0 0.937,-0.11 1.828,-0.453 l 0.272,-3.981 c 0,0 2.525,0.871 2.525,4.258 0.543,0.135 1.653,-0.031 1.653,-0.031 L 2.182,-0.565 C 2.182,-0.565 1.117,0 0,0"
             style="fill:#ffffff;fill-opacity:1;fill-rule:nonzero;stroke:none"
             id="path162" />
        </g>
        <g
           id="g164"
           transform="translate(155.461,434.577)">
          <path
             inkscape:connector-curvature="0"
             d="M 0,0 C -0.349,0.338 -0.813,0.476 -1.26,0.427 -1.15,1.035 -1.206,1.744 -1.476,2.222 -1.987,2.99 -3.585,3.058 -4.397,2.33 -4.865,1.849 -5.081,1.078 -5.029,0.429 -5.466,0.468 -5.917,0.33 -6.258,0 c -0.365,-0.352 -0.524,-0.838 -0.47,-1.307 0.47,-0.207 1.037,-0.123 1.429,0.256 l 0.606,0.588 c 0.03,-0.03 0.057,-0.059 0.088,-0.084 0.703,-0.498 2.229,-0.522 2.85,-0.069 0.057,0.049 0.11,0.112 0.16,0.18 l 0.634,-0.615 c 0.393,-0.379 0.96,-0.463 1.43,-0.256 C 0.523,-0.838 0.367,-0.352 0,0"
             style="fill:#ffffff;fill-opacity:1;fill-rule:nonzero;stroke:none"
             id="path166" />
        </g>
        <g
           id="g168"
           transform="translate(158.671,433.241)">
          <path
             inkscape:connector-curvature="0"
             d="M 0,0 C 0,-5.696 1.657,-11.002 4.506,-15.477 7.356,-11.002 9.013,-5.696 9.013,0 9.013,5.697 7.356,11.004 4.506,15.476 1.657,11.004 0,5.697 0,0"
             style="fill:#4b4f54;fill-opacity:1;fill-rule:nonzero;stroke:none"
             id="path170" />
        </g>
      </g>
    </g>
  </g>
</svg>
