<?xml version="1.0" encoding="UTF-8" standalone="no"?>
<!-- Created with Inkscape (http://www.inkscape.org/) -->

<svg
   xmlns:dc="http://purl.org/dc/elements/1.1/"
   xmlns:cc="http://creativecommons.org/ns#"
   xmlns:rdf="http://www.w3.org/1999/02/22-rdf-syntax-ns#"
   xmlns:svg="http://www.w3.org/2000/svg"
   xmlns="http://www.w3.org/2000/svg"
   xmlns:sodipodi="http://sodipodi.sourceforge.net/DTD/sodipodi-0.dtd"
   xmlns:inkscape="http://www.inkscape.org/namespaces/inkscape"
   width="519.20001"
   height="72.135002"
   id="svg4655"
   version="1.1"
   inkscape:version="0.48.4 r9939"
   sodipodi:docname="New document 3">
  <defs
     id="defs4657" />
  <sodipodi:namedview
     id="base"
     pagecolor="#ffffff"
     bordercolor="#666666"
     borderopacity="1.0"
     inkscape:pageopacity="0.0"
     inkscape:pageshadow="2"
     inkscape:zoom="0.35"
     inkscape:cx="251.74285"
     inkscape:cy="-209.64678"
     inkscape:document-units="px"
     inkscape:current-layer="layer1"
     showgrid="false"
     fit-margin-top="0"
     fit-margin-left="0"
     fit-margin-right="0"
     fit-margin-bottom="0"
     inkscape:window-width="1855"
     inkscape:window-height="1056"
     inkscape:window-x="65"
     inkscape:window-y="24"
     inkscape:window-maximized="1" />
  <metadata
     id="metadata4660">
    <rdf:RDF>
      <cc:Work
         rdf:about="">
        <dc:format>image/svg+xml</dc:format>
        <dc:type
           rdf:resource="http://purl.org/dc/dcmitype/StillImage" />
        <dc:title></dc:title>
      </cc:Work>
    </rdf:RDF>
  </metadata>
  <g
     inkscape:label="Layer 1"
     inkscape:groupmode="layer"
     id="layer1"
     transform="translate(-123.25715,-250.5804)">
    <g
       id="g12"
       transform="matrix(1.25,0,0,-1.25,275.8059,281.6929)">
      <path
         inkscape:connector-curvature="0"
         d="m 0,0 c 0,-0.598 -0.105,-1.169 -0.317,-1.714 -0.212,-0.546 -0.548,-1.043 -1.006,-1.491 -0.459,-0.447 -1.066,-0.804 -1.824,-1.068 -0.758,-0.264 -1.651,-0.396 -2.679,-0.396 -1.487,0 -2.831,0.156 -4.033,0.468 -0.285,0.084 -0.428,0.227 -0.428,0.428 l 0,2.084 c 0,0.272 0.129,0.408 0.386,0.408 l 0.062,0 c 0.522,-0.049 1.234,-0.103 2.137,-0.162 0.903,-0.059 1.543,-0.089 1.918,-0.089 0.73,0 1.228,0.115 1.495,0.344 0.268,0.229 0.402,0.612 0.402,1.147 0,0.312 -0.097,0.58 -0.292,0.803 -0.195,0.221 -0.567,0.496 -1.116,0.823 l -2.938,1.751 c -0.633,0.375 -1.138,0.778 -1.517,1.209 -0.379,0.431 -0.641,0.882 -0.787,1.354 -0.145,0.473 -0.219,0.977 -0.219,1.512 0,1.278 0.424,2.291 1.272,3.038 0.848,0.747 2.244,1.12 4.189,1.12 0.772,0 1.617,-0.048 2.534,-0.145 0.917,-0.098 1.581,-0.205 1.991,-0.323 0.215,-0.049 0.322,-0.177 0.322,-0.386 l 0,-2.157 c 0,-0.237 -0.121,-0.355 -0.364,-0.355 l -0.042,0 c -0.41,0.027 -0.735,0.052 -0.975,0.073 -0.239,0.021 -0.567,0.043 -0.984,0.068 -0.417,0.024 -0.854,0.045 -1.309,0.062 -0.455,0.018 -0.874,0.027 -1.256,0.027 -0.59,0 -1.016,-0.093 -1.276,-0.277 -0.261,-0.184 -0.392,-0.47 -0.392,-0.86 0,-0.291 0.094,-0.533 0.283,-0.724 0.187,-0.191 0.573,-0.447 1.156,-0.766 l 2.731,-1.47 C -2.175,3.961 -1.606,3.548 -1.172,3.096 -0.738,2.645 -0.433,2.167 -0.26,1.663 -0.087,1.159 0,0.604 0,0"
         style="fill:#41494f;fill-opacity:1;fill-rule:nonzero;stroke:none"
         id="path14" />
    </g>
    <g
       id="g16"
       transform="matrix(1.25,0,0,-1.25,287.25836,278.33165)">
      <path
         inkscape:connector-curvature="0"
         d="M 0,0 0,0.083 C 0,0.869 -0.169,1.461 -0.505,1.861 -0.842,2.26 -1.317,2.46 -1.928,2.46 -2.533,2.46 -3.01,2.255 -3.361,1.845 -3.713,1.435 -3.887,0.848 -3.887,0.083 L -3.887,0 0,0 z m 3.367,-1.626 c 0,-0.34 -0.15,-0.51 -0.449,-0.51 l -6.805,0 0,-0.042 c 0,-1.549 0.732,-2.325 2.199,-2.325 0.486,0 1.205,0.023 2.157,0.069 0.952,0.045 1.598,0.085 1.939,0.119 l 0.062,0 c 0.272,0 0.406,-0.11 0.406,-0.333 l 0,-1.626 c 0,-0.174 -0.033,-0.303 -0.098,-0.391 -0.067,-0.086 -0.183,-0.149 -0.35,-0.182 -1.354,-0.342 -2.813,-0.511 -4.377,-0.511 -0.695,0 -1.353,0.097 -1.975,0.293 -0.622,0.193 -1.188,0.505 -1.699,0.937 -0.51,0.43 -0.919,1.002 -1.224,1.714 -0.307,0.712 -0.459,1.559 -0.459,2.538 l 0,1.491 c 0,1.153 0.215,2.15 0.646,2.991 0.431,0.841 1.053,1.489 1.865,1.944 0.814,0.455 1.776,0.683 2.887,0.683 1.133,0 2.097,-0.24 2.893,-0.72 C 1.781,4.034 2.376,3.369 2.773,2.518 3.168,1.666 3.367,0.699 3.367,-0.385 l 0,-1.241"
         style="fill:#41494f;fill-opacity:1;fill-rule:nonzero;stroke:none"
         id="path18" />
    </g>
    <g
       id="g20"
       transform="matrix(1.25,0,0,-1.25,314.40966,286.73415)">
      <path
         inkscape:connector-curvature="0"
         d="m 0,0 c 0,-0.119 -0.045,-0.222 -0.136,-0.312 -0.09,-0.092 -0.194,-0.137 -0.312,-0.137 l -2.585,0 c -0.111,0 -0.21,0.047 -0.297,0.141 -0.087,0.093 -0.13,0.197 -0.13,0.308 l 0,7.275 c 0,0.688 -0.093,1.155 -0.276,1.402 -0.185,0.247 -0.527,0.37 -1.027,0.37 -0.549,0 -1.094,-0.129 -1.636,-0.386 0.042,-0.417 0.062,-0.879 0.062,-1.386 l 0,-7.275 c 0,-0.111 -0.044,-0.215 -0.13,-0.308 -0.088,-0.094 -0.186,-0.141 -0.298,-0.141 l -2.585,0 c -0.118,0 -0.221,0.045 -0.312,0.137 -0.09,0.09 -0.135,0.193 -0.135,0.312 l 0,7.275 c 0,0.688 -0.086,1.155 -0.256,1.402 -0.17,0.247 -0.499,0.37 -0.985,0.37 -0.375,0 -0.913,-0.185 -1.615,-0.553 l 0,-8.494 c 0,-0.111 -0.043,-0.215 -0.13,-0.308 -0.087,-0.094 -0.187,-0.141 -0.297,-0.141 l -2.585,0 c -0.118,0 -0.223,0.045 -0.312,0.137 -0.091,0.09 -0.136,0.193 -0.136,0.312 l 0,11.361 c 0,0.104 0.041,0.201 0.125,0.291 0.083,0.091 0.183,0.136 0.302,0.136 l 2.428,0 c 0.118,0 0.219,-0.042 0.303,-0.125 0.083,-0.083 0.125,-0.185 0.125,-0.302 l 0,-0.479 c 1.063,0.714 2.115,1.073 3.158,1.073 0.57,0 1.061,-0.084 1.475,-0.25 0.413,-0.167 0.763,-0.432 1.047,-0.792 0.674,0.382 1.257,0.651 1.746,0.807 0.49,0.157 1.068,0.235 1.735,0.235 0.903,0 1.628,-0.19 2.173,-0.569 0.546,-0.378 0.932,-0.912 1.157,-1.599 C -0.113,9.098 0,8.261 0,7.275 L 0,0"
         style="fill:#41494f;fill-opacity:1;fill-rule:nonzero;stroke:none"
         id="path22" />
    </g>
    <g
       id="g24"
       transform="matrix(1.25,0,0,-1.25,322.04466,286.7604)">
      <path
         inkscape:connector-curvature="0"
         d="m 0,0 c 0,-0.117 -0.045,-0.219 -0.135,-0.303 -0.091,-0.082 -0.188,-0.125 -0.292,-0.125 l -2.606,0 c -0.104,0 -0.202,0.043 -0.292,0.125 C -3.416,-0.219 -3.46,-0.117 -3.46,0 l 0,11.382 c 0,0.104 0.044,0.201 0.135,0.291 0.09,0.091 0.188,0.136 0.292,0.136 l 2.606,0 c 0.104,0 0.201,-0.045 0.292,-0.136 C -0.045,11.583 0,11.486 0,11.382 L 0,0 z m 0.083,13.622 c 0,-0.125 -0.042,-0.227 -0.125,-0.307 -0.083,-0.08 -0.184,-0.119 -0.302,-0.119 l -2.773,0 c -0.118,0 -0.218,0.041 -0.301,0.125 -0.084,0.083 -0.125,0.183 -0.125,0.301 l 0,1.981 c 0,0.118 0.04,0.219 0.12,0.303 0.079,0.083 0.181,0.125 0.306,0.125 l 2.773,0 c 0.132,0 0.236,-0.04 0.313,-0.116 0.076,-0.076 0.114,-0.18 0.114,-0.312 l 0,-1.981"
         style="fill:#41494f;fill-opacity:1;fill-rule:nonzero;stroke:none"
         id="path26" />
    </g>
    <g
       id="g28"
       transform="matrix(1.25,0,0,-1.25,338.47336,286.73415)">
      <path
         inkscape:connector-curvature="0"
         d="M 0,0 C 0,-0.119 -0.045,-0.222 -0.135,-0.312 -0.226,-0.404 -0.33,-0.449 -0.448,-0.449 l -2.574,0 c -0.125,0 -0.228,0.047 -0.308,0.141 -0.08,0.093 -0.119,0.197 -0.119,0.308 l 0,7.108 c 0,0.757 -0.105,1.277 -0.314,1.559 -0.208,0.281 -0.631,0.422 -1.271,0.422 -0.493,0 -1.16,-0.227 -2.001,-0.678 l 0,-8.411 c 0,-0.111 -0.043,-0.215 -0.13,-0.308 -0.087,-0.094 -0.187,-0.141 -0.297,-0.141 l -2.585,0 c -0.118,0 -0.222,0.045 -0.312,0.137 -0.091,0.09 -0.136,0.193 -0.136,0.312 l 0,11.361 c 0,0.104 0.041,0.201 0.125,0.291 0.083,0.091 0.184,0.136 0.302,0.136 l 2.386,0 c 0.119,0 0.22,-0.042 0.303,-0.125 0.083,-0.083 0.125,-0.185 0.125,-0.302 l 0,-0.521 c 0.605,0.423 1.164,0.715 1.678,0.875 0.515,0.16 1.115,0.24 1.804,0.24 1.43,0 2.418,-0.426 2.96,-1.277 C -0.27,9.827 0,8.636 0,7.108 L 0,0"
         style="fill:#41494f;fill-opacity:1;fill-rule:nonzero;stroke:none"
         id="path30" />
    </g>
    <g
       id="g32"
       transform="matrix(1.25,0,0,-1.25,349.22216,283.69915)">
      <path
         inkscape:connector-curvature="0"
         d="m 0,0 0,2.356 -1.209,0 c -0.723,0 -1.216,-0.122 -1.48,-0.365 C -2.953,1.748 -3.085,1.348 -3.085,0.792 l 0,-0.187 c 0,-0.424 0.104,-0.709 0.312,-0.855 0.209,-0.146 0.553,-0.219 1.032,-0.219 0.522,0 1.102,0.157 1.741,0.469 z M 3.398,-2.449 C 3.398,-2.574 3.356,-2.678 3.273,-2.756 3.189,-2.836 3.089,-2.877 2.97,-2.877 l -2.386,0 c -0.118,0 -0.219,0.043 -0.302,0.125 -0.084,0.084 -0.126,0.186 -0.126,0.303 l 0,0.344 c -0.444,-0.321 -0.903,-0.559 -1.375,-0.719 -0.473,-0.16 -1.005,-0.24 -1.595,-0.24 -1.036,0 -1.902,0.291 -2.6,0.871 -0.699,0.58 -1.048,1.512 -1.048,2.798 l 0,0.187 c 0,1.251 0.417,2.165 1.251,2.742 0.834,0.576 2.168,0.865 4.002,0.865 l 1.146,0 0,0.771 c 0,0.583 -0.128,0.974 -0.386,1.172 -0.256,0.199 -0.66,0.297 -1.209,0.297 -1.34,0 -2.521,-0.048 -3.543,-0.145 l -0.104,0 c -0.257,0 -0.386,0.129 -0.386,0.385 l 0,1.731 c 0,0.25 0.136,0.406 0.407,0.469 1.244,0.298 2.473,0.448 3.689,0.448 1.599,0 2.83,-0.35 3.695,-1.048 C 2.966,7.781 3.398,6.677 3.398,5.17 l 0,-7.619"
         style="fill:#41494f;fill-opacity:1;fill-rule:nonzero;stroke:none"
         id="path34" />
    </g>
    <g
       id="g36"
       transform="matrix(1.25,0,0,-1.25,365.05216,274.8654)">
      <path
         inkscape:connector-curvature="0"
         d="m 0,0 c 0,-0.105 -0.031,-0.198 -0.094,-0.281 l -0.229,-0.125 -0.167,0 c -0.931,0 -1.848,-0.247 -2.751,-0.741 l 0,-8.348 c 0,-0.111 -0.043,-0.215 -0.13,-0.308 -0.087,-0.094 -0.187,-0.141 -0.297,-0.141 l -2.585,0 c -0.118,0 -0.223,0.045 -0.313,0.137 -0.09,0.09 -0.135,0.193 -0.135,0.312 l 0,11.361 c 0,0.104 0.041,0.201 0.125,0.291 0.083,0.091 0.183,0.136 0.301,0.136 l 2.544,0 c 0.104,0 0.201,-0.045 0.291,-0.136 0.091,-0.09 0.136,-0.187 0.136,-0.291 l 0,-0.428 c 0.382,0.32 0.832,0.57 1.35,0.75 0.517,0.181 1.027,0.272 1.527,0.272 0.118,0 0.219,-0.042 0.302,-0.125 C -0.041,2.251 0,2.15 0,2.032 L 0,0"
         style="fill:#41494f;fill-opacity:1;fill-rule:nonzero;stroke:none"
         id="path38" />
    </g>
    <g
       id="g40"
       transform="matrix(1.25,0,0,-1.25,371.67216,286.7604)">
      <path
         inkscape:connector-curvature="0"
         d="m 0,0 c 0,-0.117 -0.046,-0.219 -0.136,-0.303 -0.091,-0.082 -0.188,-0.125 -0.292,-0.125 l -2.606,0 c -0.104,0 -0.202,0.043 -0.292,0.125 -0.09,0.084 -0.135,0.186 -0.135,0.303 l 0,11.382 c 0,0.104 0.045,0.201 0.135,0.291 0.09,0.091 0.188,0.136 0.292,0.136 l 2.606,0 c 0.104,0 0.201,-0.045 0.292,-0.136 C -0.046,11.583 0,11.486 0,11.382 L 0,0 z m 0.083,13.622 c 0,-0.125 -0.042,-0.227 -0.125,-0.307 -0.084,-0.08 -0.185,-0.119 -0.303,-0.119 l -2.773,0 c -0.118,0 -0.218,0.041 -0.301,0.125 -0.084,0.083 -0.125,0.183 -0.125,0.301 l 0,1.981 c 0,0.118 0.04,0.219 0.12,0.303 0.079,0.083 0.181,0.125 0.306,0.125 l 2.773,0 c 0.132,0 0.236,-0.04 0.313,-0.116 0.077,-0.076 0.115,-0.18 0.115,-0.312 l 0,-1.981"
         style="fill:#41494f;fill-opacity:1;fill-rule:nonzero;stroke:none"
         id="path42" />
    </g>
    <g
       id="g44"
       transform="matrix(1.25,0,0,-1.25,383.61836,280.5979)">
      <path
         inkscape:connector-curvature="0"
         d="M 0,0 0,1.49 C 0,2.352 -0.16,3.002 -0.479,3.439 -0.799,3.877 -1.271,4.096 -1.897,4.096 -2.515,4.096 -2.99,3.879 -3.319,3.444 -3.649,3.011 -3.814,2.359 -3.814,1.49 l 0,-1.49 c 0,-0.861 0.166,-1.515 0.5,-1.96 0.333,-0.444 0.805,-0.667 1.417,-0.667 0.619,0 1.09,0.223 1.413,0.667 C -0.162,-1.515 0,-0.861 0,0 z m 3.44,0 c 0,-1.724 -0.464,-3.078 -1.392,-4.065 -0.928,-0.986 -2.242,-1.48 -3.945,-1.48 -1.125,0 -2.093,0.224 -2.903,0.671 -0.809,0.45 -1.42,1.092 -1.834,1.93 -0.414,0.837 -0.62,1.818 -0.62,2.944 l 0,1.49 c 0,1.126 0.204,2.108 0.615,2.945 0.41,0.837 1.021,1.482 1.835,1.933 0.812,0.452 1.782,0.678 2.907,0.678 1.703,0 3.017,-0.497 3.945,-1.49 C 2.976,4.561 3.44,3.207 3.44,1.49 L 3.44,0"
         style="fill:#41494f;fill-opacity:1;fill-rule:nonzero;stroke:none"
         id="path46" />
    </g>
    <g
       id="g48"
       transform="matrix(1.25,0,0,-1.25,402.45836,286.7604)">
      <path
         inkscape:connector-curvature="0"
         d="m 0,0 c 0,-0.125 -0.04,-0.229 -0.12,-0.307 -0.08,-0.08 -0.175,-0.121 -0.287,-0.121 l -2.866,0 c -0.104,0 -0.194,0.043 -0.27,0.125 -0.078,0.084 -0.116,0.186 -0.116,0.303 l 0,15.03 c 0,0.111 0.037,0.207 0.11,0.287 0.073,0.079 0.165,0.119 0.276,0.119 l 2.866,0 c 0.118,0 0.216,-0.038 0.292,-0.114 C -0.039,15.245 0,15.148 0,15.03 L 0,0"
         style="fill:#41494f;fill-opacity:1;fill-rule:nonzero;stroke:none"
         id="path50" />
    </g>
    <g
       id="g52"
       transform="matrix(1.25,0,0,-1.25,419.04336,286.73415)">
      <path
         inkscape:connector-curvature="0"
         d="m 0,0 c 0,-0.119 -0.045,-0.222 -0.135,-0.312 -0.09,-0.092 -0.195,-0.137 -0.313,-0.137 l -2.574,0 c -0.125,0 -0.228,0.047 -0.308,0.141 -0.08,0.093 -0.119,0.197 -0.119,0.308 l 0,7.108 c 0,0.757 -0.105,1.277 -0.314,1.559 -0.208,0.281 -0.631,0.422 -1.271,0.422 -0.493,0 -1.16,-0.227 -2.001,-0.678 l 0,-8.411 c 0,-0.111 -0.043,-0.215 -0.13,-0.308 -0.087,-0.094 -0.186,-0.141 -0.297,-0.141 l -2.585,0 c -0.118,0 -0.222,0.045 -0.312,0.137 -0.091,0.09 -0.136,0.193 -0.136,0.312 l 0,11.361 c 0,0.104 0.041,0.201 0.125,0.291 0.083,0.091 0.184,0.136 0.302,0.136 l 2.386,0 c 0.119,0 0.22,-0.042 0.303,-0.125 0.083,-0.083 0.125,-0.185 0.125,-0.302 l 0,-0.521 c 0.605,0.423 1.164,0.715 1.678,0.875 0.515,0.16 1.115,0.24 1.804,0.24 1.43,0 2.418,-0.426 2.96,-1.277 C -0.27,9.827 0,8.636 0,7.108 L 0,0"
         style="fill:#41494f;fill-opacity:1;fill-rule:nonzero;stroke:none"
         id="path54" />
    </g>
    <g
       id="g56"
       transform="matrix(1.25,0,0,-1.25,430.70466,286.7879)">
      <path
         inkscape:connector-curvature="0"
         d="m 0,0 c 0,-0.236 -0.136,-0.379 -0.407,-0.425 -0.688,-0.112 -1.25,-0.168 -1.688,-0.168 -0.612,0 -1.134,0.05 -1.569,0.152 -0.434,0.099 -0.805,0.283 -1.11,0.551 C -5.08,0.377 -5.307,0.752 -5.457,1.236 -5.606,1.719 -5.68,2.325 -5.68,3.054 l 0,6.192 -1.709,0.271 c -0.126,0.021 -0.232,0.072 -0.319,0.151 -0.087,0.08 -0.13,0.179 -0.13,0.298 l 0,1.406 c 0,0.126 0.045,0.233 0.135,0.323 0.091,0.091 0.194,0.136 0.314,0.136 l 1.709,0 0,1.74 c 0,0.236 0.142,0.379 0.427,0.428 l 2.606,0.448 0.062,0 c 0.111,0 0.203,-0.031 0.277,-0.094 0.072,-0.062 0.109,-0.149 0.109,-0.26 l 0,-2.262 1.751,0 c 0.103,0 0.201,-0.045 0.292,-0.136 0.09,-0.09 0.135,-0.187 0.135,-0.291 l 0,-1.73 C -0.021,9.555 -0.066,9.455 -0.156,9.371 -0.247,9.288 -0.345,9.246 -0.448,9.246 l -1.751,0 0,-6.212 c 0,-0.292 0.016,-0.509 0.047,-0.651 0.031,-0.143 0.095,-0.239 0.192,-0.287 0.098,-0.048 0.25,-0.073 0.459,-0.073 l 1.053,0 C -0.149,2.023 0,1.905 0,1.669 L 0,0"
         style="fill:#41494f;fill-opacity:1;fill-rule:nonzero;stroke:none"
         id="path58" />
    </g>
    <g
       id="g60"
       transform="matrix(1.25,0,0,-1.25,441.85716,278.33165)">
      <path
         inkscape:connector-curvature="0"
         d="M 0,0 0,0.083 C 0,0.869 -0.169,1.461 -0.506,1.861 -0.843,2.26 -1.317,2.46 -1.929,2.46 -2.533,2.46 -3.011,2.255 -3.361,1.845 -3.713,1.435 -3.888,0.848 -3.888,0.083 L -3.888,0 0,0 z m 3.366,-1.626 c 0,-0.34 -0.149,-0.51 -0.448,-0.51 l -6.806,0 0,-0.042 c 0,-1.549 0.733,-2.325 2.2,-2.325 0.486,0 1.205,0.023 2.157,0.069 0.952,0.045 1.597,0.085 1.938,0.119 l 0.063,0 c 0.271,0 0.406,-0.11 0.406,-0.333 l 0,-1.626 c 0,-0.174 -0.033,-0.303 -0.099,-0.391 -0.066,-0.086 -0.182,-0.149 -0.349,-0.182 -1.355,-0.342 -2.814,-0.511 -4.377,-0.511 -0.695,0 -1.354,0.097 -1.976,0.293 -0.622,0.193 -1.187,0.505 -1.698,0.937 -0.511,0.43 -0.919,1.002 -1.225,1.714 -0.306,0.712 -0.459,1.559 -0.459,2.538 l 0,1.491 c 0,1.153 0.215,2.15 0.647,2.991 0.431,0.841 1.053,1.489 1.865,1.944 0.814,0.455 1.776,0.683 2.887,0.683 1.133,0 2.097,-0.24 2.892,-0.72 C 1.78,4.034 2.376,3.369 2.773,2.518 3.168,1.666 3.366,0.699 3.366,-0.385 l 0,-1.241"
         style="fill:#41494f;fill-opacity:1;fill-rule:nonzero;stroke:none"
         id="path62" />
    </g>
    <g
       id="g64"
       transform="matrix(1.25,0,0,-1.25,457.24336,274.8654)">
      <path
         inkscape:connector-curvature="0"
         d="m 0,0 c 0,-0.105 -0.032,-0.198 -0.094,-0.281 l -0.229,-0.125 -0.167,0 c -0.931,0 -1.848,-0.247 -2.752,-0.741 l 0,-8.348 c 0,-0.111 -0.042,-0.215 -0.129,-0.308 -0.087,-0.094 -0.187,-0.141 -0.297,-0.141 l -2.585,0 c -0.118,0 -0.223,0.045 -0.313,0.137 -0.091,0.09 -0.135,0.193 -0.135,0.312 l 0,11.361 c 0,0.104 0.041,0.201 0.125,0.291 0.083,0.091 0.183,0.136 0.301,0.136 l 2.544,0 c 0.104,0 0.201,-0.045 0.291,-0.136 0.091,-0.09 0.136,-0.187 0.136,-0.291 l 0,-0.428 c 0.382,0.32 0.832,0.57 1.35,0.75 0.517,0.181 1.027,0.272 1.527,0.272 0.118,0 0.219,-0.042 0.302,-0.125 C -0.041,2.251 0,2.15 0,2.032 L 0,0"
         style="fill:#41494f;fill-opacity:1;fill-rule:nonzero;stroke:none"
         id="path66" />
    </g>
    <g
       id="g68"
       transform="matrix(1.25,0,0,-1.25,472.55216,286.73415)">
      <path
         inkscape:connector-curvature="0"
         d="M 0,0 C 0,-0.119 -0.045,-0.222 -0.135,-0.312 -0.226,-0.404 -0.33,-0.449 -0.448,-0.449 l -2.575,0 c -0.125,0 -0.227,0.047 -0.307,0.141 -0.08,0.093 -0.119,0.197 -0.119,0.308 l 0,7.108 c 0,0.757 -0.105,1.277 -0.314,1.559 -0.208,0.281 -0.632,0.422 -1.271,0.422 -0.494,0 -1.161,-0.227 -2.001,-0.678 l 0,-8.411 c 0,-0.111 -0.043,-0.215 -0.13,-0.308 -0.087,-0.094 -0.187,-0.141 -0.297,-0.141 l -2.585,0 c -0.118,0 -0.223,0.045 -0.313,0.137 -0.09,0.09 -0.135,0.193 -0.135,0.312 l 0,11.361 c 0,0.104 0.041,0.201 0.125,0.291 0.083,0.091 0.183,0.136 0.301,0.136 l 2.387,0 c 0.118,0 0.22,-0.042 0.303,-0.125 0.083,-0.083 0.125,-0.185 0.125,-0.302 l 0,-0.521 c 0.604,0.423 1.164,0.715 1.678,0.875 0.514,0.16 1.115,0.24 1.803,0.24 1.431,0 2.418,-0.426 2.96,-1.277 C -0.271,9.827 0,8.636 0,7.108 L 0,0"
         style="fill:#41494f;fill-opacity:1;fill-rule:nonzero;stroke:none"
         id="path70" />
    </g>
    <g
       id="g72"
       transform="matrix(1.25,0,0,-1.25,483.29966,283.69915)">
      <path
         inkscape:connector-curvature="0"
         d="m 0,0 0,2.356 -1.209,0 C -1.931,2.356 -2.424,2.234 -2.688,1.991 -2.953,1.748 -3.085,1.348 -3.085,0.792 l 0,-0.187 c 0,-0.424 0.105,-0.709 0.313,-0.855 0.209,-0.146 0.553,-0.219 1.032,-0.219 0.522,0 1.102,0.157 1.74,0.469 z M 3.399,-2.449 C 3.399,-2.574 3.357,-2.678 3.274,-2.756 3.19,-2.836 3.089,-2.877 2.971,-2.877 l -2.387,0 c -0.118,0 -0.218,0.043 -0.301,0.125 -0.084,0.084 -0.126,0.186 -0.126,0.303 l 0,0.344 c -0.445,-0.321 -0.904,-0.559 -1.375,-0.719 -0.473,-0.16 -1.005,-0.24 -1.595,-0.24 -1.036,0 -1.902,0.291 -2.601,0.871 -0.698,0.58 -1.048,1.512 -1.048,2.798 l 0,0.187 c 0,1.251 0.417,2.165 1.251,2.742 0.834,0.576 2.168,0.865 4.002,0.865 l 1.147,0 0,0.771 c 0,0.583 -0.128,0.974 -0.386,1.172 -0.257,0.199 -0.66,0.297 -1.209,0.297 -1.341,0 -2.521,-0.048 -3.543,-0.145 l -0.104,0 c -0.257,0 -0.386,0.129 -0.386,0.385 l 0,1.731 c 0,0.25 0.136,0.406 0.406,0.469 1.244,0.298 2.474,0.448 3.69,0.448 1.598,0 2.83,-0.35 3.695,-1.048 C 2.966,7.781 3.399,6.677 3.399,5.17 l 0,-7.619"
         style="fill:#41494f;fill-opacity:1;fill-rule:nonzero;stroke:none"
         id="path74" />
    </g>
    <g
       id="g76"
       transform="matrix(1.25,0,0,-1.25,500.68086,286.52665)">
      <path
         inkscape:connector-curvature="0"
         d="m 0,0 c 0,-0.152 -0.033,-0.259 -0.095,-0.322 -0.063,-0.062 -0.181,-0.119 -0.354,-0.168 -0.862,-0.207 -1.81,-0.312 -2.845,-0.312 -1.522,0 -2.731,0.472 -3.627,1.418 -0.897,0.944 -1.345,2.271 -1.345,3.98 l 0,1.793 c 0,1.126 0.203,2.097 0.609,2.914 0.408,0.816 0.986,1.435 1.736,1.855 0.751,0.421 1.626,0.631 2.627,0.631 1.063,0 2.011,-0.109 2.845,-0.323 0.173,-0.049 0.291,-0.105 0.354,-0.167 C -0.033,11.236 0,11.129 0,10.975 L 0,9.079 C 0,8.974 -0.042,8.887 -0.126,8.818 -0.209,8.749 -0.303,8.714 -0.408,8.714 l -0.041,0 C -1.373,8.811 -2.242,8.86 -3.055,8.86 -4.222,8.86 -4.806,8.037 -4.806,6.389 l 0,-1.793 c 0,-0.888 0.16,-1.524 0.48,-1.907 0.319,-0.382 0.744,-0.573 1.271,-0.573 0.445,0 0.896,0.015 1.355,0.042 0.458,0.027 0.875,0.062 1.251,0.104 l 0.041,0 c 0.119,0 0.216,-0.033 0.292,-0.099 C -0.039,2.097 0,2.012 0,1.908 L 0,0"
         style="fill:#41494f;fill-opacity:1;fill-rule:nonzero;stroke:none"
         id="path78" />
    </g>
    <g
       id="g80"
       transform="matrix(1.25,0,0,-1.25,507.83216,286.7604)">
      <path
         inkscape:connector-curvature="0"
         d="m 0,0 c 0,-0.117 -0.046,-0.219 -0.135,-0.303 -0.091,-0.082 -0.188,-0.125 -0.292,-0.125 l -2.606,0 c -0.104,0 -0.202,0.043 -0.292,0.125 -0.091,0.084 -0.136,0.186 -0.136,0.303 l 0,11.382 c 0,0.104 0.045,0.201 0.136,0.291 0.09,0.091 0.188,0.136 0.292,0.136 l 2.606,0 c 0.104,0 0.201,-0.045 0.292,-0.136 C -0.046,11.583 0,11.486 0,11.382 L 0,0 z m 0.083,13.622 c 0,-0.125 -0.042,-0.227 -0.125,-0.307 -0.084,-0.08 -0.184,-0.119 -0.302,-0.119 l -2.773,0 c -0.118,0 -0.219,0.041 -0.302,0.125 -0.084,0.083 -0.125,0.183 -0.125,0.301 l 0,1.981 c 0,0.118 0.04,0.219 0.121,0.303 0.079,0.083 0.181,0.125 0.306,0.125 l 2.773,0 c 0.131,0 0.236,-0.04 0.313,-0.116 0.076,-0.076 0.114,-0.18 0.114,-0.312 l 0,-1.981"
         style="fill:#41494f;fill-opacity:1;fill-rule:nonzero;stroke:none"
         id="path82" />
    </g>
    <g
       id="g84"
       transform="matrix(1.25,0,0,-1.25,519.77966,280.5979)">
      <path
         inkscape:connector-curvature="0"
         d="M 0,0 0,1.49 C 0,2.352 -0.16,3.002 -0.48,3.439 -0.799,3.877 -1.272,4.096 -1.897,4.096 -2.516,4.096 -2.99,3.879 -3.319,3.444 -3.649,3.011 -3.814,2.359 -3.814,1.49 l 0,-1.49 c 0,-0.861 0.166,-1.515 0.5,-1.96 0.333,-0.444 0.805,-0.667 1.417,-0.667 0.619,0 1.089,0.223 1.413,0.667 C -0.162,-1.515 0,-0.861 0,0 z m 3.439,0 c 0,-1.724 -0.463,-3.078 -1.391,-4.065 -0.928,-0.986 -2.242,-1.48 -3.945,-1.48 -1.125,0 -2.093,0.224 -2.903,0.671 -0.809,0.45 -1.421,1.092 -1.834,1.93 -0.414,0.837 -0.62,1.818 -0.62,2.944 l 0,1.49 c 0,1.126 0.204,2.108 0.614,2.945 0.41,0.837 1.022,1.482 1.835,1.933 0.813,0.452 1.783,0.678 2.908,0.678 1.703,0 3.017,-0.497 3.945,-1.49 C 2.976,4.561 3.439,3.207 3.439,1.49 l 0,-1.49"
         style="fill:#41494f;fill-opacity:1;fill-rule:nonzero;stroke:none"
         id="path86" />
    </g>
    <g
       id="g88"
       transform="matrix(1.25,0,0,-1.25,539.97216,286.73415)">
      <path
         inkscape:connector-curvature="0"
         d="M 0,0 C 0,-0.119 -0.045,-0.222 -0.134,-0.312 -0.225,-0.404 -0.33,-0.449 -0.448,-0.449 l -2.574,0 c -0.125,0 -0.228,0.047 -0.308,0.141 -0.08,0.093 -0.119,0.197 -0.119,0.308 l 0,7.108 c 0,0.757 -0.104,1.277 -0.313,1.559 -0.208,0.281 -0.632,0.422 -1.272,0.422 -0.493,0 -1.16,-0.227 -2.001,-0.678 l 0,-8.411 c 0,-0.111 -0.043,-0.215 -0.13,-0.308 -0.087,-0.094 -0.186,-0.141 -0.297,-0.141 l -2.585,0 c -0.118,0 -0.222,0.045 -0.312,0.137 -0.091,0.09 -0.136,0.193 -0.136,0.312 l 0,11.361 c 0,0.104 0.041,0.201 0.125,0.291 0.083,0.091 0.184,0.136 0.302,0.136 l 2.387,0 c 0.118,0 0.219,-0.042 0.302,-0.125 0.083,-0.083 0.125,-0.185 0.125,-0.302 l 0,-0.521 c 0.605,0.423 1.164,0.715 1.678,0.875 0.515,0.16 1.115,0.24 1.804,0.24 1.43,0 2.418,-0.426 2.96,-1.277 C -0.27,9.827 0,8.636 0,7.108 L 0,0"
         style="fill:#41494f;fill-opacity:1;fill-rule:nonzero;stroke:none"
         id="path90" />
    </g>
    <g
       id="g92"
       transform="matrix(1.25,0,0,-1.25,550.72086,283.69915)">
      <path
         inkscape:connector-curvature="0"
         d="m 0,0 0,2.356 -1.209,0 c -0.723,0 -1.216,-0.122 -1.48,-0.365 C -2.953,1.748 -3.085,1.348 -3.085,0.792 l 0,-0.187 c 0,-0.424 0.104,-0.709 0.312,-0.855 0.209,-0.146 0.553,-0.219 1.033,-0.219 0.521,0 1.101,0.157 1.74,0.469 z m 3.398,-2.449 c 0,-0.125 -0.042,-0.229 -0.125,-0.307 -0.084,-0.08 -0.184,-0.121 -0.302,-0.121 l -2.387,0 c -0.118,0 -0.219,0.043 -0.302,0.125 -0.084,0.084 -0.126,0.186 -0.126,0.303 l 0,0.344 c -0.444,-0.321 -0.903,-0.559 -1.375,-0.719 -0.472,-0.16 -1.005,-0.24 -1.595,-0.24 -1.036,0 -1.902,0.291 -2.6,0.871 -0.698,0.58 -1.048,1.512 -1.048,2.798 l 0,0.187 c 0,1.251 0.417,2.165 1.251,2.742 0.834,0.576 2.168,0.865 4.002,0.865 l 1.146,0 0,0.771 c 0,0.583 -0.128,0.974 -0.385,1.172 -0.257,0.199 -0.66,0.297 -1.209,0.297 -1.341,0 -2.522,-0.048 -3.543,-0.145 l -0.105,0 c -0.257,0 -0.386,0.129 -0.386,0.385 l 0,1.731 c 0,0.25 0.136,0.406 0.407,0.469 1.244,0.298 2.473,0.448 3.689,0.448 1.599,0 2.83,-0.35 3.695,-1.048 C 2.966,7.781 3.398,6.677 3.398,5.17 l 0,-7.619"
         style="fill:#41494f;fill-opacity:1;fill-rule:nonzero;stroke:none"
         id="path94" />
    </g>
    <g
       id="g96"
       transform="matrix(1.25,0,0,-1.25,562.49966,286.73415)">
      <path
         inkscape:connector-curvature="0"
         d="m 0,0 c 0,-0.119 -0.038,-0.222 -0.114,-0.312 -0.078,-0.092 -0.174,-0.137 -0.292,-0.137 l -2.606,0 c -0.118,0 -0.223,0.045 -0.312,0.137 C -3.415,-0.222 -3.46,-0.119 -3.46,0 l 0,15.499 c 0,0.11 0.047,0.21 0.14,0.297 0.094,0.087 0.197,0.13 0.308,0.13 l 2.606,0 c 0.111,0 0.207,-0.043 0.286,-0.13 C -0.04,15.709 0,15.609 0,15.499 L 0,0"
         style="fill:#41494f;fill-opacity:1;fill-rule:nonzero;stroke:none"
         id="path98" />
    </g>
    <g
       id="g100"
       transform="matrix(1.25,0,0,-1.25,268.5734,305.8554)">
      <path
         inkscape:connector-curvature="0"
         d="M 0,0 0,6.053 C -0.233,6.098 -0.493,6.125 -0.781,6.139 -1.069,6.151 -1.402,6.157 -1.779,6.157 -2.256,6.157 -2.642,6.059 -2.94,5.864 -3.238,5.666 -3.449,5.381 -3.573,5.006 -3.697,4.631 -3.76,4.162 -3.76,3.596 l 0,-1.094 c 0,-0.875 0.15,-1.525 0.448,-1.955 0.297,-0.429 0.808,-0.644 1.533,-0.644 0.447,0 1.04,0.033 1.779,0.097 z M 1.348,-0.656 C 1.348,-0.769 1.326,-0.851 1.284,-0.9 1.242,-0.951 1.156,-0.988 1.027,-1.013 0.135,-1.181 -0.802,-1.265 -1.779,-1.265 c -0.739,0 -1.359,0.152 -1.858,0.457 -0.499,0.306 -0.868,0.742 -1.109,1.31 -0.24,0.569 -0.36,1.235 -0.36,2 l 0,1.094 c 0,0.611 0.067,1.145 0.204,1.604 0.137,0.459 0.345,0.847 0.626,1.166 0.28,0.318 0.627,0.558 1.042,0.722 0.414,0.164 0.899,0.244 1.455,0.244 0.307,0 0.615,-0.011 0.924,-0.037 C -0.548,7.272 -0.263,7.231 0,7.176 l 0,2.838 0.082,0.205 0.209,0.084 0.781,0 0.194,-0.082 0.082,-0.207 0,-10.67"
         style="fill:#41494f;fill-opacity:1;fill-rule:nonzero;stroke:none"
         id="path102" />
    </g>
    <g
       id="g104"
       transform="matrix(1.25,0,0,-1.25,279.22966,301.32415)">
      <path
         inkscape:connector-curvature="0"
         d="m 0,0 0,0.143 c 0,0.561 -0.074,1.019 -0.22,1.377 -0.146,0.357 -0.365,0.615 -0.658,0.773 -0.293,0.161 -0.665,0.239 -1.118,0.239 -1.359,0 -2.04,-0.797 -2.04,-2.389 L -4.036,0 0,0 z m 1.362,-0.683 c 0,-0.225 -0.097,-0.336 -0.29,-0.336 l -5.108,0 0,-0.217 c 0,-0.883 0.173,-1.518 0.518,-1.904 0.345,-0.389 0.878,-0.582 1.598,-0.582 0.47,0 0.951,0.015 1.44,0.045 0.488,0.029 0.914,0.072 1.276,0.127 l 0.075,0 c 0.164,0 0.246,-0.073 0.246,-0.217 l 0,-0.514 C 1.117,-4.384 1.095,-4.463 1.053,-4.515 1.011,-4.566 0.93,-4.607 0.811,-4.638 0.399,-4.716 -0.031,-4.779 -0.48,-4.824 -0.929,-4.869 -1.41,-4.89 -1.92,-4.89 c -0.641,0 -1.219,0.113 -1.736,0.342 -0.515,0.228 -0.932,0.613 -1.25,1.154 -0.318,0.541 -0.476,1.26 -0.476,2.158 l 0,1.379 c 0,1.102 0.296,1.971 0.889,2.609 0.593,0.637 1.426,0.955 2.497,0.955 0.72,0 1.334,-0.144 1.843,-0.437 C 0.356,2.977 0.736,2.561 0.986,2.022 1.237,1.483 1.362,0.858 1.362,0.143 l 0,-0.826"
         style="fill:#41494f;fill-opacity:1;fill-rule:nonzero;stroke:none"
         id="path106" />
    </g>
    <g
       id="g108"
       transform="matrix(1.25,0,0,-1.25,296.15716,303.6304)">
      <path
         inkscape:connector-curvature="0"
         d="m 0,0 c 0,-0.864 -0.285,-1.588 -0.852,-2.17 -0.568,-0.584 -1.54,-0.875 -2.915,-0.875 -0.794,0 -1.638,0.07 -2.531,0.209 -0.119,0.019 -0.198,0.047 -0.235,0.084 l -0.055,0.191 0,0.61 c 0,0.164 0.087,0.246 0.259,0.246 l 0.045,0 c 0.701,-0.059 1.539,-0.09 2.517,-0.09 0.858,0 1.459,0.152 1.802,0.459 0.342,0.304 0.513,0.75 0.513,1.336 0,0.377 -0.127,0.705 -0.38,0.982 -0.252,0.277 -0.734,0.633 -1.444,1.065 l -1.481,0.9 c -0.735,0.447 -1.27,0.889 -1.605,1.322 -0.335,0.434 -0.502,0.944 -0.502,1.53 0,0.898 0.314,1.572 0.942,2.021 0.628,0.449 1.53,0.674 2.706,0.674 0.342,0 0.676,-0.008 1.001,-0.026 0.325,-0.017 0.612,-0.037 0.86,-0.06 0.248,-0.022 0.511,-0.055 0.789,-0.1 0.174,-0.035 0.261,-0.119 0.261,-0.254 l 0,-0.654 c 0,-0.164 -0.087,-0.246 -0.261,-0.246 l -0.029,0 c -0.894,0.061 -1.768,0.09 -2.621,0.09 -0.809,0 -1.385,-0.106 -1.728,-0.317 -0.342,-0.211 -0.513,-0.587 -0.513,-1.128 0,-0.342 0.122,-0.643 0.365,-0.901 0.243,-0.258 0.675,-0.572 1.295,-0.945 l 1.4,-0.842 c 0.58,-0.348 1.047,-0.682 1.399,-1 0.353,-0.32 0.607,-0.65 0.763,-0.988 C -0.079,0.787 0,0.412 0,0"
         style="fill:#41494f;fill-opacity:1;fill-rule:nonzero;stroke:none"
         id="path110" />
    </g>
    <g
       id="g112"
       transform="matrix(1.25,0,0,-1.25,304.78336,301.32415)">
      <path
         inkscape:connector-curvature="0"
         d="m 0,0 0,0.143 c 0,0.561 -0.073,1.019 -0.22,1.377 -0.145,0.357 -0.365,0.615 -0.658,0.773 -0.293,0.161 -0.665,0.239 -1.117,0.239 -1.36,0 -2.04,-0.797 -2.04,-2.389 L -4.035,0 0,0 z m 1.362,-0.683 c 0,-0.225 -0.096,-0.336 -0.29,-0.336 l -5.107,0 0,-0.217 c 0,-0.883 0.173,-1.518 0.517,-1.904 0.345,-0.389 0.878,-0.582 1.598,-0.582 0.471,0 0.951,0.015 1.44,0.045 0.489,0.029 0.914,0.072 1.277,0.127 l 0.074,0 c 0.164,0 0.246,-0.073 0.246,-0.217 l 0,-0.514 C 1.117,-4.384 1.096,-4.463 1.054,-4.515 1.012,-4.566 0.931,-4.607 0.811,-4.638 0.399,-4.716 -0.03,-4.779 -0.48,-4.824 -0.929,-4.869 -1.409,-4.89 -1.92,-4.89 c -0.641,0 -1.219,0.113 -1.735,0.342 -0.516,0.228 -0.933,0.613 -1.25,1.154 -0.319,0.541 -0.477,1.26 -0.477,2.158 l 0,1.379 c 0,1.102 0.296,1.971 0.89,2.609 0.592,0.637 1.426,0.955 2.497,0.955 0.72,0 1.334,-0.144 1.843,-0.437 C 0.356,2.977 0.736,2.561 0.986,2.022 1.237,1.483 1.362,0.858 1.362,0.143 l 0,-0.826"
         style="fill:#41494f;fill-opacity:1;fill-rule:nonzero;stroke:none"
         id="path114" />
    </g>
    <g
       id="g116"
       transform="matrix(1.25,0,0,-1.25,315.40216,300.34665)">
      <path
         inkscape:connector-curvature="0"
         d="M 0,0 0,0.119 C 0,0.627 -0.152,1.025 -0.458,1.314 -0.763,1.605 -1.298,1.75 -2.061,1.75 -2.836,1.75 -3.372,1.603 -3.67,1.306 -3.968,1.011 -4.117,0.617 -4.117,0.119 l 0,-0.119 c 0,-0.436 0.149,-0.805 0.447,-1.106 0.298,-0.299 0.834,-0.449 1.609,-0.449 0.763,0 1.298,0.133 1.603,0.402 C -0.152,-0.885 0,-0.5 0,0 z m 0.119,-6.252 0,0.119 c 0,0.287 -0.133,0.513 -0.398,0.68 -0.266,0.166 -0.753,0.335 -1.463,0.509 l -1.72,0.44 c -0.243,-0.207 -0.428,-0.426 -0.555,-0.655 -0.126,-0.228 -0.189,-0.529 -0.189,-0.9 l 0,-0.135 c 0,-0.306 0.067,-0.56 0.201,-0.759 0.134,-0.198 0.364,-0.352 0.693,-0.461 0.327,-0.11 0.761,-0.164 1.302,-0.164 0.824,0 1.385,0.107 1.683,0.32 0.298,0.213 0.446,0.549 0.446,1.006 z M 1.631,2.086 C 1.631,1.922 1.539,1.824 1.355,1.795 L 0.812,1.691 C 1.154,1.318 1.325,0.795 1.325,0.119 L 1.325,0 c 0,-1.741 -1.129,-2.612 -3.386,-2.612 -0.676,0 -1.264,0.102 -1.765,0.305 -0.253,-0.115 -0.38,-0.285 -0.38,-0.514 0,-0.134 0.036,-0.238 0.107,-0.312 0.073,-0.074 0.193,-0.135 0.362,-0.18 l 2.27,-0.58 C -0.851,-4.051 -0.34,-4.211 0.067,-4.37 0.474,-4.528 0.81,-4.75 1.072,-5.036 1.335,-5.321 1.467,-5.688 1.467,-6.133 l 0,-0.119 c 0,-0.766 -0.276,-1.352 -0.826,-1.758 -0.551,-0.406 -1.435,-0.611 -2.651,-0.611 -1.181,0 -2.061,0.212 -2.639,0.636 -0.579,0.426 -0.868,1.022 -0.868,1.791 l 0,0.135 c 0,0.412 0.091,0.785 0.272,1.119 0.182,0.336 0.411,0.61 0.689,0.824 l -0.112,0.043 c -0.233,0.1 -0.408,0.26 -0.524,0.477 -0.118,0.219 -0.175,0.455 -0.175,0.707 l 0,0.016 c 0,0.218 0.055,0.427 0.163,0.628 0.109,0.202 0.264,0.36 0.462,0.473 -0.467,0.438 -0.7,1.027 -0.7,1.772 l 0,0.119 c 0,0.779 0.261,1.424 0.786,1.933 0.523,0.508 1.388,0.762 2.595,0.762 l 3.341,0 0.242,-0.092 C 1.595,2.66 1.631,2.58 1.631,2.48 l 0,-0.394"
         style="fill:#41494f;fill-opacity:1;fill-rule:nonzero;stroke:none"
         id="path118" />
    </g>
    <g
       id="g120"
       transform="matrix(1.25,0,0,-1.25,327.44466,306.92415)">
      <path
         inkscape:connector-curvature="0"
         d="m 0,0 -0.078,-0.221 -0.205,-0.086 -0.767,0 -0.204,0.086 L -1.34,0 l 0,0.289 C -1.757,0.051 -2.159,-0.125 -2.546,-0.238 -2.934,-0.354 -3.338,-0.41 -3.76,-0.41 c -1.771,0 -2.657,1.056 -2.657,3.172 l 0,5.009 0.089,0.217 0.216,0.088 0.737,0 0.216,-0.082 c 0.054,-0.055 0.082,-0.129 0.082,-0.223 l 0,-5.009 c 0,-0.506 0.059,-0.909 0.178,-1.207 0.12,-0.297 0.3,-0.508 0.543,-0.629 0.244,-0.121 0.564,-0.182 0.961,-0.182 0.575,0 1.261,0.197 2.055,0.596 l 0,6.431 0.093,0.213 0.212,0.092 0.752,0 L -0.078,7.99 0,7.771 0,0"
         style="fill:#41494f;fill-opacity:1;fill-rule:nonzero;stroke:none"
         id="path122" />
    </g>
    <g
       id="g124"
       transform="matrix(1.25,0,0,-1.25,334.74966,297.8154)">
      <path
         inkscape:connector-curvature="0"
         d="m 0,0 c 0,-0.174 -0.107,-0.26 -0.321,-0.26 -0.694,0 -1.396,-0.213 -2.106,-0.64 l 0,-6.387 -0.086,-0.217 -0.212,-0.09 -0.752,0 -0.201,0.09 -0.089,0.217 0,7.771 0.082,0.219 0.208,0.086 0.715,0 0.212,-0.086 0.078,-0.219 0,-0.32 C -1.767,0.656 -1.05,0.9 -0.321,0.9 -0.107,0.9 0,0.809 0,0.625 L 0,0"
         style="fill:#41494f;fill-opacity:1;fill-rule:nonzero;stroke:none"
         id="path126" />
    </g>
    <g
       id="g128"
       transform="matrix(1.25,0,0,-1.25,338.44336,306.92415)">
      <path
         inkscape:connector-curvature="0"
         d="m 0,0 -0.089,-0.221 -0.216,-0.086 -0.73,0 -0.216,0.09 L -1.34,0 l 0,7.771 0.086,0.217 0.219,0.088 0.73,0 c 0.094,0 0.168,-0.027 0.223,-0.082 C -0.028,7.939 0,7.865 0,7.771 L 0,0 z m 0.03,9.73 -0.09,-0.22 -0.216,-0.086 -0.774,0 -0.216,0.09 -0.089,0.216 0,1.213 0.085,0.215 0.22,0.09 0.774,0 c 0.095,0 0.169,-0.027 0.224,-0.082 0.055,-0.055 0.082,-0.129 0.082,-0.223 l 0,-1.213"
         style="fill:#41494f;fill-opacity:1;fill-rule:nonzero;stroke:none"
         id="path130" />
    </g>
    <g
       id="g132"
       transform="matrix(1.25,0,0,-1.25,347.30216,305.8554)">
      <path
         inkscape:connector-curvature="0"
         d="M 0,0 0,6.053 C -0.234,6.098 -0.494,6.125 -0.782,6.139 -1.07,6.151 -1.403,6.157 -1.78,6.157 -2.256,6.157 -2.643,6.059 -2.941,5.864 -3.239,5.666 -3.45,5.381 -3.574,5.006 -3.698,4.631 -3.76,4.162 -3.76,3.596 l 0,-1.094 c 0,-0.875 0.149,-1.525 0.447,-1.955 0.298,-0.429 0.809,-0.644 1.533,-0.644 0.448,0 1.04,0.033 1.78,0.097 z M 1.347,-0.656 C 1.347,-0.769 1.326,-0.851 1.284,-0.9 1.242,-0.951 1.156,-0.988 1.027,-1.013 0.134,-1.181 -0.802,-1.265 -1.78,-1.265 c -0.739,0 -1.358,0.152 -1.857,0.457 -0.499,0.306 -0.868,0.742 -1.11,1.31 -0.24,0.569 -0.36,1.235 -0.36,2 l 0,1.094 c 0,0.611 0.067,1.145 0.204,1.604 0.137,0.459 0.345,0.847 0.626,1.166 0.28,0.318 0.627,0.558 1.042,0.722 0.414,0.164 0.9,0.244 1.455,0.244 0.308,0 0.615,-0.011 0.924,-0.037 C -0.548,7.272 -0.263,7.231 0,7.176 l 0,2.838 0.082,0.205 0.209,0.084 0.781,0 0.193,-0.082 0.082,-0.207 0,-10.67"
         style="fill:#41494f;fill-opacity:1;fill-rule:nonzero;stroke:none"
         id="path134" />
    </g>
    <g
       id="g136"
       transform="matrix(1.25,0,0,-1.25,357.19466,305.3054)">
      <path
         inkscape:connector-curvature="0"
         d="m 0,0 0,2.457 -1.124,0 C -2.023,2.457 -2.635,2.346 -2.963,2.125 -3.29,1.904 -3.454,1.515 -3.454,0.961 l 0,-0.188 c 0,-0.351 0.053,-0.631 0.16,-0.834 0.106,-0.203 0.26,-0.345 0.462,-0.427 0.2,-0.082 0.46,-0.123 0.777,-0.123 0.348,0 0.677,0.048 0.986,0.146 C -0.758,-0.369 -0.402,-0.215 0,0 z m 1.347,-1.295 -0.096,-0.217 -0.208,-0.09 -0.708,0 -0.208,0.09 -0.09,0.217 0,0.334 c -0.253,-0.145 -0.507,-0.274 -0.763,-0.387 -0.256,-0.115 -0.519,-0.203 -0.789,-0.263 -0.271,-0.063 -0.537,-0.094 -0.801,-0.094 -0.724,0 -1.32,0.189 -1.786,0.568 -0.467,0.381 -0.7,1.012 -0.7,1.897 l 0,0.185 c 0,0.422 0.067,0.787 0.201,1.098 0.134,0.31 0.34,0.564 0.618,0.763 0.278,0.198 0.656,0.35 1.135,0.454 0.479,0.105 1.054,0.156 1.724,0.156 l 1.124,0 0,0.611 c 0,0.641 -0.121,1.086 -0.365,1.34 -0.243,0.254 -0.665,0.379 -1.265,0.379 -0.74,0 -1.517,-0.039 -2.33,-0.119 l -0.076,0 c -0.183,0 -0.275,0.082 -0.275,0.246 l 0,0.529 c 0,0.164 0.107,0.26 0.32,0.291 0.804,0.133 1.591,0.199 2.361,0.199 1.985,0 2.977,-0.955 2.977,-2.865 l 0,-5.322"
         style="fill:#41494f;fill-opacity:1;fill-rule:nonzero;stroke:none"
         id="path138" />
    </g>
    <g
       id="g140"
       transform="matrix(1.25,0,0,-1.25,367.50586,305.8554)">
      <path
         inkscape:connector-curvature="0"
         d="M 0,0 0,6.053 C -0.234,6.098 -0.494,6.125 -0.782,6.139 -1.07,6.151 -1.403,6.157 -1.78,6.157 -2.256,6.157 -2.643,6.059 -2.941,5.864 -3.239,5.666 -3.45,5.381 -3.574,5.006 -3.698,4.631 -3.76,4.162 -3.76,3.596 l 0,-1.094 c 0,-0.875 0.149,-1.525 0.447,-1.955 0.298,-0.429 0.809,-0.644 1.533,-0.644 0.448,0 1.04,0.033 1.78,0.097 z M 1.347,-0.656 C 1.347,-0.769 1.326,-0.851 1.284,-0.9 1.242,-0.951 1.156,-0.988 1.027,-1.013 0.134,-1.181 -0.802,-1.265 -1.78,-1.265 c -0.739,0 -1.358,0.152 -1.857,0.457 -0.499,0.306 -0.868,0.742 -1.109,1.31 -0.241,0.569 -0.361,1.235 -0.361,2 l 0,1.094 c 0,0.611 0.068,1.145 0.204,1.604 0.137,0.459 0.345,0.847 0.626,1.166 0.281,0.318 0.627,0.558 1.042,0.722 0.414,0.164 0.9,0.244 1.455,0.244 0.308,0 0.616,-0.011 0.924,-0.037 C -0.548,7.272 -0.263,7.231 0,7.176 l 0,2.838 0.082,0.205 0.209,0.084 0.781,0 0.193,-0.082 0.082,-0.207 0,-10.67"
         style="fill:#41494f;fill-opacity:1;fill-rule:nonzero;stroke:none"
         id="path142" />
    </g>
    <g
       id="g144"
       transform="matrix(1.25,0,0,-1.25,382.52466,305.8554)">
      <path
         inkscape:connector-curvature="0"
         d="M 0,0 0,6.053 C -0.233,6.098 -0.493,6.125 -0.781,6.139 -1.069,6.151 -1.402,6.157 -1.779,6.157 -2.256,6.157 -2.642,6.059 -2.94,5.864 -3.238,5.666 -3.449,5.381 -3.573,5.006 -3.697,4.631 -3.759,4.162 -3.759,3.596 l 0,-1.094 c 0,-0.875 0.149,-1.525 0.447,-1.955 0.298,-0.429 0.808,-0.644 1.533,-0.644 0.447,0 1.04,0.033 1.779,0.097 z M 1.348,-0.656 C 1.348,-0.769 1.326,-0.851 1.284,-0.9 1.242,-0.951 1.157,-0.988 1.028,-1.013 0.135,-1.181 -0.801,-1.265 -1.779,-1.265 c -0.739,0 -1.358,0.152 -1.857,0.457 -0.499,0.306 -0.869,0.742 -1.11,1.31 -0.24,0.569 -0.36,1.235 -0.36,2 l 0,1.094 c 0,0.611 0.067,1.145 0.204,1.604 0.137,0.459 0.345,0.847 0.626,1.166 0.28,0.318 0.627,0.558 1.042,0.722 0.414,0.164 0.899,0.244 1.455,0.244 0.308,0 0.615,-0.011 0.924,-0.037 C -0.548,7.272 -0.262,7.231 0,7.176 l 0,2.838 0.082,0.205 0.209,0.084 0.782,0 0.193,-0.082 0.082,-0.207 0,-10.67"
         style="fill:#41494f;fill-opacity:1;fill-rule:nonzero;stroke:none"
         id="path146" />
    </g>
    <g
       id="g148"
       transform="matrix(1.25,0,0,-1.25,393.18086,301.32415)">
      <path
         inkscape:connector-curvature="0"
         d="m 0,0 0,0.143 c 0,0.561 -0.074,1.019 -0.22,1.377 -0.146,0.357 -0.365,0.615 -0.658,0.773 -0.293,0.161 -0.665,0.239 -1.117,0.239 -1.36,0 -2.04,-0.797 -2.04,-2.389 L -4.035,0 0,0 z m 1.362,-0.683 c 0,-0.225 -0.097,-0.336 -0.29,-0.336 l -5.107,0 0,-0.217 c 0,-0.883 0.172,-1.518 0.517,-1.904 0.345,-0.389 0.878,-0.582 1.598,-0.582 0.47,0 0.951,0.015 1.44,0.045 0.488,0.029 0.914,0.072 1.277,0.127 l 0.074,0 c 0.164,0 0.246,-0.073 0.246,-0.217 l 0,-0.514 C 1.117,-4.384 1.095,-4.463 1.053,-4.515 1.011,-4.566 0.93,-4.607 0.811,-4.638 0.399,-4.716 -0.031,-4.779 -0.48,-4.824 -0.929,-4.869 -1.409,-4.89 -1.92,-4.89 c -0.641,0 -1.219,0.113 -1.736,0.342 -0.515,0.228 -0.932,0.613 -1.25,1.154 -0.318,0.541 -0.476,1.26 -0.476,2.158 l 0,1.379 c 0,1.102 0.296,1.971 0.889,2.609 0.593,0.637 1.426,0.955 2.498,0.955 0.719,0 1.334,-0.144 1.842,-0.437 C 0.356,2.977 0.736,2.561 0.986,2.022 1.237,1.483 1.362,0.858 1.362,0.143 l 0,-0.826"
         style="fill:#41494f;fill-opacity:1;fill-rule:nonzero;stroke:none"
         id="path150" />
    </g>
    <g
       id="g152"
       transform="matrix(1.25,0,0,-1.25,399.03466,306.92415)">
      <path
         inkscape:connector-curvature="0"
         d="m 0,0 -0.074,-0.221 -0.201,-0.086 -0.789,0 -0.197,0.086 L -1.34,0 l 0,10.869 0.071,0.201 0.205,0.088 0.789,0 0.201,-0.082 L 0,10.869 0,0"
         style="fill:#41494f;fill-opacity:1;fill-rule:nonzero;stroke:none"
         id="path154" />
    </g>
    <g
       id="g156"
       transform="matrix(1.25,0,0,-1.25,413.94336,297.3954)">
      <path
         inkscape:connector-curvature="0"
         d="m 0,0 0,0.201 c 0,0.76 -0.23,1.303 -0.689,1.633 -0.459,0.33 -1.19,0.496 -2.193,0.496 -0.531,0 -1.039,-0.019 -1.526,-0.061 l 0,-4.466 c 0.055,0 0.145,-0.004 0.272,-0.01 0.126,-0.008 0.263,-0.014 0.409,-0.02 0.147,-0.004 0.3,-0.011 0.462,-0.017 0.162,-0.008 0.289,-0.012 0.383,-0.012 1.032,0 1.771,0.176 2.215,0.527 C -0.223,-1.375 0,-0.799 0,0 z m 1.385,0 c 0,-2.279 -1.423,-3.418 -4.267,-3.418 -0.357,0 -0.866,0.025 -1.526,0.074 l 0,-4.279 -0.074,-0.221 -0.202,-0.086 -0.818,0 -0.197,0.086 -0.078,0.221 0,10.623 c 0,0.228 0.121,0.357 0.364,0.387 0.7,0.08 1.544,0.119 2.531,0.119 2.844,0 4.267,-1.102 4.267,-3.305 L 1.385,0"
         style="fill:#41494f;fill-opacity:1;fill-rule:nonzero;stroke:none"
         id="path158" />
    </g>
    <g
       id="g160"
       transform="matrix(1.25,0,0,-1.25,423.00716,305.3054)">
      <path
         inkscape:connector-curvature="0"
         d="m 0,0 0,2.457 -1.124,0 C -2.022,2.457 -2.635,2.346 -2.963,2.125 -3.29,1.904 -3.454,1.515 -3.454,0.961 l 0,-0.188 c 0,-0.351 0.054,-0.631 0.16,-0.834 0.107,-0.203 0.261,-0.345 0.462,-0.427 0.2,-0.082 0.46,-0.123 0.777,-0.123 0.348,0 0.677,0.048 0.987,0.146 0.31,0.096 0.667,0.25 1.068,0.465 z m 1.348,-1.295 -0.097,-0.217 -0.208,-0.09 -0.708,0 -0.208,0.09 -0.09,0.217 0,0.334 c -0.253,-0.145 -0.507,-0.274 -0.763,-0.387 -0.255,-0.115 -0.518,-0.203 -0.789,-0.263 -0.27,-0.063 -0.537,-0.094 -0.8,-0.094 -0.725,0 -1.321,0.189 -1.787,0.568 -0.466,0.381 -0.7,1.012 -0.7,1.897 l 0,0.185 c 0,0.422 0.068,0.787 0.201,1.098 0.134,0.31 0.34,0.564 0.619,0.763 0.277,0.198 0.656,0.35 1.134,0.454 0.48,0.105 1.054,0.156 1.724,0.156 l 1.124,0 0,0.611 c 0,0.641 -0.121,1.086 -0.364,1.34 -0.243,0.254 -0.665,0.379 -1.266,0.379 -0.74,0 -1.516,-0.039 -2.33,-0.119 l -0.075,0 c -0.184,0 -0.276,0.082 -0.276,0.246 l 0,0.529 c 0,0.164 0.107,0.26 0.321,0.291 0.803,0.133 1.591,0.199 2.36,0.199 1.985,0 2.978,-0.955 2.978,-2.865 l 0,-5.322"
         style="fill:#41494f;fill-opacity:1;fill-rule:nonzero;stroke:none"
         id="path162" />
    </g>
    <g
       id="g164"
       transform="matrix(1.25,0,0,-1.25,433.76466,306.81415)">
      <path
         inkscape:connector-curvature="0"
         d="m 0,0 c 0,-0.184 -0.101,-0.295 -0.304,-0.334 -0.621,-0.11 -1.256,-0.164 -1.906,-0.164 -0.67,0 -1.253,0.15 -1.75,0.453 -0.497,0.303 -0.871,0.732 -1.125,1.289 -0.252,0.555 -0.378,1.209 -0.378,1.957 l 0,1.191 c 0,0.745 0.125,1.397 0.376,1.955 0.25,0.559 0.621,0.991 1.112,1.295 0.491,0.305 1.08,0.457 1.765,0.457 0.625,0 1.26,-0.056 1.906,-0.17 C -0.185,7.91 -0.105,7.875 -0.063,7.828 -0.02,7.781 0,7.703 0,7.594 L 0,7.043 C 0,6.894 -0.086,6.82 -0.26,6.82 l -0.06,0 c -0.63,0.068 -1.261,0.104 -1.89,0.104 -1.271,0 -1.907,-0.844 -1.907,-2.532 l 0,-1.191 c 0,-0.838 0.163,-1.469 0.489,-1.895 0.325,-0.423 0.797,-0.636 1.418,-0.636 0.645,0 1.275,0.037 1.89,0.113 l 0.06,0 C -0.086,0.783 0,0.705 0,0.551 L 0,0"
         style="fill:#41494f;fill-opacity:1;fill-rule:nonzero;stroke:none"
         id="path166" />
    </g>
    <g
       id="g168"
       transform="matrix(1.25,0,0,-1.25,437.78466,306.92415)">
      <path
         inkscape:connector-curvature="0"
         d="m 0,0 -0.089,-0.221 -0.215,-0.086 -0.73,0 -0.217,0.09 L -1.34,0 l 0,7.771 0.086,0.217 0.22,0.088 0.73,0 c 0.093,0 0.168,-0.027 0.222,-0.082 C -0.027,7.939 0,7.865 0,7.771 L 0,0 z m 0.031,9.73 -0.09,-0.22 -0.216,-0.086 -0.775,0 -0.215,0.09 -0.089,0.216 0,1.213 0.085,0.215 0.219,0.09 0.775,0 c 0.095,0 0.169,-0.027 0.224,-0.082 0.054,-0.055 0.082,-0.129 0.082,-0.223 l 0,-1.213"
         style="fill:#41494f;fill-opacity:1;fill-rule:nonzero;stroke:none"
         id="path170" />
    </g>
    <g
       id="g172"
       transform="matrix(1.25,0,0,-1.25,446.98836,301.32415)">
      <path
         inkscape:connector-curvature="0"
         d="m 0,0 0,0.143 c 0,0.561 -0.074,1.019 -0.22,1.377 -0.146,0.357 -0.365,0.615 -0.658,0.773 -0.293,0.161 -0.665,0.239 -1.118,0.239 -1.359,0 -2.04,-0.797 -2.04,-2.389 L -4.036,0 0,0 z m 1.362,-0.683 c 0,-0.225 -0.097,-0.336 -0.29,-0.336 l -5.108,0 0,-0.217 c 0,-0.883 0.173,-1.518 0.518,-1.904 0.345,-0.389 0.878,-0.582 1.598,-0.582 0.47,0 0.951,0.015 1.44,0.045 0.488,0.029 0.914,0.072 1.276,0.127 l 0.075,0 c 0.164,0 0.246,-0.073 0.246,-0.217 l 0,-0.514 C 1.117,-4.384 1.095,-4.463 1.053,-4.515 1.011,-4.566 0.93,-4.607 0.811,-4.638 0.399,-4.716 -0.031,-4.779 -0.48,-4.824 -0.929,-4.869 -1.41,-4.89 -1.92,-4.89 c -0.641,0 -1.219,0.113 -1.736,0.342 -0.515,0.228 -0.932,0.613 -1.25,1.154 -0.318,0.541 -0.476,1.26 -0.476,2.158 l 0,1.379 c 0,1.102 0.296,1.971 0.889,2.609 0.593,0.637 1.426,0.955 2.497,0.955 0.72,0 1.334,-0.144 1.843,-0.437 C 0.356,2.977 0.736,2.561 0.986,2.022 1.237,1.483 1.362,0.858 1.362,0.143 l 0,-0.826"
         style="fill:#41494f;fill-opacity:1;fill-rule:nonzero;stroke:none"
         id="path174" />
    </g>
    <g
       id="g176"
       transform="matrix(1.25,0,0,-1.25,458.99336,306.92415)">
      <path
         inkscape:connector-curvature="0"
         d="m 0,0 -0.089,-0.221 -0.209,-0.086 -0.737,0 -0.208,0.09 L -1.34,0 l 0,5.017 c 0,0.5 -0.057,0.899 -0.171,1.194 -0.114,0.297 -0.295,0.506 -0.54,0.631 -0.246,0.123 -0.567,0.185 -0.964,0.185 -0.571,0 -1.258,-0.199 -2.062,-0.595 l 0,-6.432 -0.086,-0.217 -0.212,-0.09 -0.752,0 -0.201,0.09 -0.089,0.217 0,7.771 0.082,0.219 0.208,0.086 0.767,0 0.209,-0.086 0.074,-0.219 0,-0.283 c 0.427,0.238 0.831,0.414 1.214,0.529 0.382,0.114 0.786,0.17 1.213,0.17 0.903,0 1.571,-0.267 2.003,-0.802 C -0.216,6.848 0,6.059 0,5.017 L 0,0"
         style="fill:#41494f;fill-opacity:1;fill-rule:nonzero;stroke:none"
         id="path178" />
    </g>
    <g
       id="g180"
       transform="matrix(1.25,0,0,-1.25,466.77336,307.01915)">
      <path
         inkscape:connector-curvature="0"
         d="m 0,0 c 0,-0.149 -0.093,-0.235 -0.277,-0.26 -0.337,-0.049 -0.667,-0.074 -0.989,-0.074 -0.745,0 -1.276,0.14 -1.594,0.42 -0.317,0.281 -0.476,0.82 -0.476,1.619 l 0,5.324 -1.482,0.164 c -0.193,0.02 -0.29,0.111 -0.29,0.275 l 0,0.417 0.078,0.197 0.212,0.07 1.482,0 0,1.496 c 0,0.174 0.092,0.278 0.275,0.307 l 0.789,0.119 0.045,0 0.164,-0.068 0.067,-0.186 0,-1.668 1.645,0 c 0.095,0 0.169,-0.027 0.224,-0.082 0.054,-0.055 0.082,-0.129 0.082,-0.223 l 0,-0.513 -0.09,-0.219 -0.216,-0.086 -1.645,0 0,-5.324 c 0,-0.406 0.057,-0.668 0.171,-0.785 0.115,-0.118 0.333,-0.174 0.656,-0.174 l 0.848,0 C -0.108,0.746 0,0.674 0,0.529 L 0,0"
         style="fill:#41494f;fill-opacity:1;fill-rule:nonzero;stroke:none"
         id="path182" />
    </g>
    <g
       id="g184"
       transform="matrix(1.25,0,0,-1.25,474.92336,301.32415)">
      <path
         inkscape:connector-curvature="0"
         d="m 0,0 0,0.143 c 0,0.561 -0.073,1.019 -0.22,1.377 -0.145,0.357 -0.365,0.615 -0.658,0.773 -0.293,0.161 -0.665,0.239 -1.117,0.239 -1.359,0 -2.04,-0.797 -2.04,-2.389 L -4.035,0 0,0 z m 1.363,-0.683 c 0,-0.225 -0.097,-0.336 -0.291,-0.336 l -5.107,0 0,-0.217 c 0,-0.883 0.173,-1.518 0.518,-1.904 0.344,-0.389 0.878,-0.582 1.597,-0.582 0.471,0 0.951,0.015 1.441,0.045 0.488,0.029 0.914,0.072 1.276,0.127 l 0.074,0 c 0.164,0 0.246,-0.073 0.246,-0.217 l 0,-0.514 C 1.117,-4.384 1.096,-4.463 1.054,-4.515 1.012,-4.566 0.931,-4.607 0.812,-4.638 0.4,-4.716 -0.03,-4.779 -0.479,-4.824 -0.928,-4.869 -1.409,-4.89 -1.92,-4.89 c -0.64,0 -1.218,0.113 -1.735,0.342 -0.516,0.228 -0.933,0.613 -1.25,1.154 -0.318,0.541 -0.477,1.26 -0.477,2.158 l 0,1.379 c 0,1.102 0.296,1.971 0.89,2.609 0.593,0.637 1.426,0.955 2.497,0.955 0.72,0 1.334,-0.144 1.843,-0.437 C 0.357,2.977 0.737,2.561 0.987,2.022 1.238,1.483 1.363,0.858 1.363,0.143 l 0,-0.826"
         style="fill:#41494f;fill-opacity:1;fill-rule:nonzero;stroke:none"
         id="path186" />
    </g>
    <g
       id="g188"
       transform="matrix(1.25,0,0,-1.25,491.75836,297.14415)">
      <path
         inkscape:connector-curvature="0"
         d="M 0,0 -0.015,-0.111 -2.531,-8.89 c -0.158,-0.565 -0.345,-1.012 -0.559,-1.34 -0.213,-0.327 -0.493,-0.563 -0.841,-0.707 -0.347,-0.143 -0.811,-0.215 -1.392,-0.215 -0.447,0 -0.873,0.047 -1.281,0.14 -0.212,0.051 -0.32,0.131 -0.32,0.247 l 0,0.558 c 0,0.164 0.097,0.246 0.291,0.246 l 0.044,0 c 0.671,-0.06 1.122,-0.09 1.356,-0.09 0.451,0 0.785,0.088 1.001,0.264 0.215,0.176 0.385,0.52 0.509,1.031 l 0.158,0.625 -0.217,0 c -0.273,0 -0.496,0.065 -0.67,0.194 -0.174,0.129 -0.327,0.416 -0.461,0.857 L -6.938,-0.111 -6.953,0 c 0,0.168 0.092,0.252 0.275,0.252 l 0.834,0 c 0.134,0 0.221,-0.078 0.261,-0.238 l 1.801,-6.617 c 0.054,-0.225 0.151,-0.336 0.291,-0.336 l 0.245,0 1.854,6.968 0.104,0.161 0.186,0.062 0.857,0 L -0.066,0.186 0,0"
         style="fill:#41494f;fill-opacity:1;fill-rule:nonzero;stroke:none"
         id="path190" />
    </g>
    <g
       id="g192"
       transform="matrix(1.25,0,0,-1.25,506.66586,307.0729)">
      <path
         inkscape:connector-curvature="0"
         d="m 0,0 c 0,-0.131 -0.052,-0.201 -0.156,-0.217 -0.477,-0.049 -1.466,-0.074 -2.97,-0.074 -1.087,0 -1.901,0.222 -2.439,0.67 -0.539,0.447 -0.807,1.168 -0.807,2.166 l 0,5.867 c 0,0.992 0.267,1.713 0.803,2.162 0.537,0.449 1.35,0.674 2.443,0.674 0.436,0 0.796,-0.002 1.079,-0.008 0.283,-0.004 0.628,-0.016 1.035,-0.033 0.406,-0.018 0.692,-0.033 0.856,-0.049 L -0.04,11.088 0,10.943 0,10.183 C 0,10.06 -0.057,9.998 -0.171,9.998 l -2.941,0 C -3.648,9.998 -4.05,9.947 -4.318,9.845 -4.586,9.744 -4.765,9.582 -4.854,9.361 -4.944,9.14 -4.988,8.824 -4.988,8.412 l 0,-2.121 4.683,0 0.216,-0.09 L 0,5.984 0,5.412 -0.097,5.195 l -0.208,-0.09 -4.683,0 0,-2.56 c 0,-0.412 0.044,-0.729 0.134,-0.95 0.089,-0.22 0.268,-0.382 0.536,-0.484 0.268,-0.101 0.67,-0.152 1.206,-0.152 l 2.941,0 C -0.057,0.959 0,0.896 0,0.773 L 0,0"
         style="fill:#41494f;fill-opacity:1;fill-rule:nonzero;stroke:none"
         id="path194" />
    </g>
    <g
       id="g196"
       transform="matrix(1.25,0,0,-1.25,517.45216,307.0929)">
      <path
         inkscape:connector-curvature="0"
         d="m 0,0 c 0,-0.115 -0.068,-0.172 -0.201,-0.172 l -1.05,0 -0.216,0.119 -2.182,3.188 -2.18,-3.158 -0.117,-0.121 -0.144,-0.028 -0.916,0 c -0.119,0 -0.179,0.051 -0.179,0.149 l 0.074,0.201 2.747,3.916 -2.59,3.738 -0.081,0.201 c 0,0.119 0.076,0.178 0.23,0.178 l 0.99,0 c 0.114,0 0.216,-0.068 0.305,-0.207 l 1.936,-2.867 1.951,2.867 c 0.074,0.094 0.128,0.152 0.16,0.174 l 0.16,0.033 0.886,0 c 0.133,0 0.201,-0.059 0.201,-0.178 L -0.291,7.832 -2.852,4.192 -0.068,0.178 0,0"
         style="fill:#41494f;fill-opacity:1;fill-rule:nonzero;stroke:none"
         id="path198" />
    </g>
    <g
       id="g200"
       transform="matrix(1.25,0,0,-1.25,525.39836,306.81415)">
      <path
         inkscape:connector-curvature="0"
         d="m 0,0 c 0,-0.184 -0.101,-0.295 -0.305,-0.334 -0.621,-0.11 -1.255,-0.164 -1.906,-0.164 -0.67,0 -1.253,0.15 -1.749,0.453 -0.497,0.303 -0.871,0.732 -1.125,1.289 -0.253,0.555 -0.379,1.209 -0.379,1.957 l 0,1.191 c 0,0.745 0.125,1.397 0.376,1.955 0.25,0.559 0.621,0.991 1.113,1.295 0.491,0.305 1.08,0.457 1.764,0.457 0.625,0 1.261,-0.056 1.906,-0.17 0.12,-0.019 0.2,-0.054 0.242,-0.101 C -0.02,7.781 0,7.703 0,7.594 L 0,7.043 C 0,6.894 -0.087,6.82 -0.261,6.82 l -0.059,0 c -0.63,0.068 -1.261,0.104 -1.891,0.104 -1.27,0 -1.906,-0.844 -1.906,-2.532 l 0,-1.191 c 0,-0.838 0.163,-1.469 0.488,-1.895 0.325,-0.423 0.798,-0.636 1.418,-0.636 0.646,0 1.276,0.037 1.891,0.113 l 0.059,0 C -0.087,0.783 0,0.705 0,0.551 L 0,0"
         style="fill:#41494f;fill-opacity:1;fill-rule:nonzero;stroke:none"
         id="path202" />
    </g>
    <g
       id="g204"
       transform="matrix(1.25,0,0,-1.25,533.91336,301.32415)">
      <path
         inkscape:connector-curvature="0"
         d="m 0,0 0,0.143 c 0,0.561 -0.074,1.019 -0.22,1.377 -0.146,0.357 -0.365,0.615 -0.658,0.773 -0.293,0.161 -0.665,0.239 -1.117,0.239 -1.36,0 -2.041,-0.797 -2.041,-2.389 L -4.036,0 0,0 z m 1.362,-0.683 c 0,-0.225 -0.097,-0.336 -0.29,-0.336 l -5.108,0 0,-0.217 c 0,-0.883 0.173,-1.518 0.518,-1.904 0.345,-0.389 0.878,-0.582 1.598,-0.582 0.47,0 0.951,0.015 1.44,0.045 0.488,0.029 0.914,0.072 1.276,0.127 l 0.075,0 c 0.164,0 0.246,-0.073 0.246,-0.217 l 0,-0.514 C 1.117,-4.384 1.095,-4.463 1.053,-4.515 1.011,-4.566 0.93,-4.607 0.811,-4.638 0.399,-4.716 -0.031,-4.779 -0.48,-4.824 -0.929,-4.869 -1.41,-4.89 -1.92,-4.89 c -0.641,0 -1.219,0.113 -1.736,0.342 -0.515,0.228 -0.932,0.613 -1.25,1.154 -0.318,0.541 -0.476,1.26 -0.476,2.158 l 0,1.379 c 0,1.102 0.296,1.971 0.889,2.609 0.593,0.637 1.426,0.955 2.498,0.955 0.719,0 1.333,-0.144 1.842,-0.437 C 0.356,2.977 0.736,2.561 0.986,2.022 1.237,1.483 1.362,0.858 1.362,0.143 l 0,-0.826"
         style="fill:#41494f;fill-opacity:1;fill-rule:nonzero;stroke:none"
         id="path206" />
    </g>
    <g
       id="g208"
       transform="matrix(1.25,0,0,-1.25,539.76716,306.92415)">
      <path
         inkscape:connector-curvature="0"
         d="m 0,0 -0.074,-0.221 -0.201,-0.086 -0.789,0 -0.198,0.086 L -1.34,0 l 0,10.869 0.071,0.201 0.205,0.088 0.789,0 0.201,-0.082 L 0,10.869 0,0"
         style="fill:#41494f;fill-opacity:1;fill-rule:nonzero;stroke:none"
         id="path210" />
    </g>
    <g
       id="g212"
       transform="matrix(1.25,0,0,-1.25,548.93336,301.32415)">
      <path
         inkscape:connector-curvature="0"
         d="m 0,0 0,0.143 c 0,0.561 -0.073,1.019 -0.22,1.377 -0.145,0.357 -0.365,0.615 -0.658,0.773 -0.293,0.161 -0.665,0.239 -1.117,0.239 -1.359,0 -2.04,-0.797 -2.04,-2.389 L -4.035,0 0,0 z m 1.363,-0.683 c 0,-0.225 -0.097,-0.336 -0.291,-0.336 l -5.107,0 0,-0.217 c 0,-0.883 0.173,-1.518 0.518,-1.904 0.344,-0.389 0.878,-0.582 1.597,-0.582 0.471,0 0.951,0.015 1.441,0.045 0.488,0.029 0.914,0.072 1.276,0.127 l 0.074,0 c 0.164,0 0.246,-0.073 0.246,-0.217 l 0,-0.514 C 1.117,-4.384 1.096,-4.463 1.054,-4.515 1.012,-4.566 0.931,-4.607 0.812,-4.638 0.4,-4.716 -0.03,-4.779 -0.479,-4.824 -0.928,-4.869 -1.409,-4.89 -1.92,-4.89 c -0.64,0 -1.218,0.113 -1.735,0.342 -0.516,0.228 -0.933,0.613 -1.25,1.154 -0.318,0.541 -0.477,1.26 -0.477,2.158 l 0,1.379 c 0,1.102 0.296,1.971 0.89,2.609 0.593,0.637 1.426,0.955 2.497,0.955 0.72,0 1.334,-0.144 1.843,-0.437 C 0.357,2.977 0.737,2.561 0.987,2.022 1.238,1.483 1.363,0.858 1.363,0.143 l 0,-0.826"
         style="fill:#41494f;fill-opacity:1;fill-rule:nonzero;stroke:none"
         id="path214" />
    </g>
    <g
       id="g216"
       transform="matrix(1.25,0,0,-1.25,560.93966,306.92415)">
      <path
         inkscape:connector-curvature="0"
         d="m 0,0 -0.089,-0.221 -0.209,-0.086 -0.737,0 -0.208,0.09 L -1.34,0 l 0,5.017 c 0,0.5 -0.058,0.899 -0.171,1.194 -0.114,0.297 -0.295,0.506 -0.54,0.631 -0.246,0.123 -0.567,0.185 -0.964,0.185 -0.571,0 -1.259,-0.199 -2.062,-0.595 l 0,-6.432 -0.086,-0.217 -0.212,-0.09 -0.752,0 -0.201,0.09 -0.089,0.217 0,7.771 0.082,0.219 0.208,0.086 0.766,0 0.209,-0.086 0.075,-0.219 0,-0.283 c 0.426,0.238 0.831,0.414 1.213,0.529 0.382,0.114 0.787,0.17 1.213,0.17 0.904,0 1.572,-0.267 2.003,-0.802 C -0.216,6.848 0,6.059 0,5.017 L 0,0"
         style="fill:#41494f;fill-opacity:1;fill-rule:nonzero;stroke:none"
         id="path218" />
    </g>
    <g
       id="g220"
       transform="matrix(1.25,0,0,-1.25,570.02086,306.81415)">
      <path
         inkscape:connector-curvature="0"
         d="m 0,0 c 0,-0.184 -0.101,-0.295 -0.304,-0.334 -0.621,-0.11 -1.256,-0.164 -1.907,-0.164 -0.67,0 -1.253,0.15 -1.749,0.453 -0.497,0.303 -0.871,0.732 -1.125,1.289 -0.253,0.555 -0.379,1.209 -0.379,1.957 l 0,1.191 c 0,0.745 0.125,1.397 0.376,1.955 0.25,0.559 0.622,0.991 1.113,1.295 0.491,0.305 1.08,0.457 1.764,0.457 0.625,0 1.261,-0.056 1.907,-0.17 C -0.185,7.91 -0.105,7.875 -0.063,7.828 -0.02,7.781 0,7.703 0,7.594 L 0,7.043 C 0,6.894 -0.087,6.82 -0.26,6.82 l -0.06,0 c -0.63,0.068 -1.261,0.104 -1.891,0.104 -1.27,0 -1.906,-0.844 -1.906,-2.532 l 0,-1.191 c 0,-0.838 0.163,-1.469 0.488,-1.895 0.326,-0.423 0.798,-0.636 1.418,-0.636 0.646,0 1.276,0.037 1.891,0.113 l 0.06,0 C -0.087,0.783 0,0.705 0,0.551 L 0,0"
         style="fill:#41494f;fill-opacity:1;fill-rule:nonzero;stroke:none"
         id="path222" />
    </g>
    <g
       id="g224"
       transform="matrix(1.25,0,0,-1.25,574.04086,306.92415)">
      <path
         inkscape:connector-curvature="0"
         d="m 0,0 -0.089,-0.221 -0.216,-0.086 -0.729,0 -0.217,0.09 L -1.34,0 l 0,7.771 0.086,0.217 0.22,0.088 0.729,0 c 0.094,0 0.168,-0.027 0.223,-0.082 C -0.027,7.939 0,7.865 0,7.771 L 0,0 z m 0.03,9.73 -0.089,-0.22 -0.216,-0.086 -0.775,0 -0.215,0.09 -0.089,0.216 0,1.213 0.085,0.215 0.219,0.09 0.775,0 c 0.094,0 0.169,-0.027 0.223,-0.082 0.055,-0.055 0.082,-0.129 0.082,-0.223 l 0,-1.213"
         style="fill:#41494f;fill-opacity:1;fill-rule:nonzero;stroke:none"
         id="path226" />
    </g>
    <g
       id="g228"
       transform="matrix(1.25,0,0,-1.25,582.48086,305.3054)">
      <path
         inkscape:connector-curvature="0"
         d="m 0,0 0,2.457 -1.124,0 C -2.022,2.457 -2.635,2.346 -2.963,2.125 -3.29,1.904 -3.454,1.515 -3.454,0.961 l 0,-0.188 c 0,-0.351 0.054,-0.631 0.16,-0.834 0.107,-0.203 0.261,-0.345 0.462,-0.427 0.2,-0.082 0.46,-0.123 0.777,-0.123 0.348,0 0.677,0.048 0.987,0.146 0.31,0.096 0.667,0.25 1.068,0.465 z m 1.348,-1.295 -0.097,-0.217 -0.208,-0.09 -0.708,0 -0.208,0.09 -0.09,0.217 0,0.334 c -0.253,-0.145 -0.507,-0.274 -0.762,-0.387 -0.256,-0.115 -0.519,-0.203 -0.79,-0.263 -0.27,-0.063 -0.537,-0.094 -0.8,-0.094 -0.725,0 -1.321,0.189 -1.786,0.568 -0.467,0.381 -0.701,1.012 -0.701,1.897 l 0,0.185 c 0,0.422 0.068,0.787 0.202,1.098 0.133,0.31 0.339,0.564 0.618,0.763 0.277,0.198 0.656,0.35 1.134,0.454 0.48,0.105 1.054,0.156 1.724,0.156 l 1.124,0 0,0.611 c 0,0.641 -0.121,1.086 -0.364,1.34 -0.243,0.254 -0.665,0.379 -1.266,0.379 -0.74,0 -1.516,-0.039 -2.33,-0.119 l -0.075,0 c -0.184,0 -0.275,0.082 -0.275,0.246 l 0,0.529 c 0,0.164 0.106,0.26 0.32,0.291 0.804,0.133 1.591,0.199 2.36,0.199 1.986,0 2.978,-0.955 2.978,-2.865 l 0,-5.322"
         style="fill:#41494f;fill-opacity:1;fill-rule:nonzero;stroke:none"
         id="path230" />
    </g>
    <g
       id="g232"
       transform="matrix(1.25,0,0,-1.25,599.88336,306.81415)">
      <path
         inkscape:connector-curvature="0"
         d="m 0,0 c 0,-0.168 -0.1,-0.27 -0.298,-0.305 -0.695,-0.129 -1.539,-0.193 -2.531,-0.193 -0.496,0 -0.984,0.08 -1.463,0.238 -0.479,0.158 -0.909,0.414 -1.292,0.766 -0.382,0.353 -0.689,0.838 -0.923,1.457 -0.233,0.617 -0.349,1.365 -0.349,2.244 l 0,2.121 c 0,1.162 0.194,2.096 0.584,2.801 0.389,0.703 0.884,1.199 1.485,1.484 0.6,0.285 1.253,0.428 1.958,0.428 0.724,0 1.578,-0.082 2.56,-0.246 0.16,-0.02 0.239,-0.084 0.239,-0.194 l 0,-0.781 c 0,-0.109 -0.06,-0.164 -0.179,-0.164 l -0.044,0 c -1.102,0.09 -1.956,0.135 -2.561,0.135 -0.819,0 -1.467,-0.272 -1.943,-0.817 C -5.233,8.431 -5.472,7.549 -5.472,6.328 l 0,-2.121 c 0,-1.211 0.24,-2.09 0.718,-2.635 0.48,-0.547 1.126,-0.82 1.94,-0.82 0.7,0 1.539,0.041 2.516,0.119 l 0.06,0 C -0.079,0.871 0,0.789 0,0.625 L 0,0"
         style="fill:#41494f;fill-opacity:1;fill-rule:nonzero;stroke:none"
         id="path234" />
    </g>
    <g
       id="g236"
       transform="matrix(1.25,0,0,-1.25,603.71716,306.92415)">
      <path
         inkscape:connector-curvature="0"
         d="m 0,0 -0.074,-0.221 -0.201,-0.086 -0.789,0 -0.197,0.086 -0.078,0.221 0,10.869 0.07,0.201 0.205,0.088 0.789,0 0.201,-0.082 L 0,10.869 0,0"
         style="fill:#41494f;fill-opacity:1;fill-rule:nonzero;stroke:none"
         id="path238" />
    </g>
    <g
       id="g240"
       transform="matrix(1.25,0,0,-1.25,608.38966,306.92415)">
      <path
         inkscape:connector-curvature="0"
         d="m 0,0 -0.089,-0.221 -0.216,-0.086 -0.73,0 -0.216,0.09 L -1.34,0 l 0,7.771 0.086,0.217 0.219,0.088 0.73,0 c 0.094,0 0.168,-0.027 0.223,-0.082 C -0.028,7.939 0,7.865 0,7.771 L 0,0 z M 1.586,11.465 1.526,11.346 -0.201,9.424 C -0.29,9.324 -0.353,9.262 -0.387,9.234 l -0.164,-0.041 -0.818,0 c -0.095,0 -0.142,0.035 -0.142,0.104 l 0.06,0.156 1.496,1.893 c 0.093,0.103 0.159,0.166 0.193,0.189 l 0.172,0.033 1.005,0 c 0.114,0 0.171,-0.035 0.171,-0.103"
         style="fill:#41494f;fill-opacity:1;fill-rule:nonzero;stroke:none"
         id="path242" />
    </g>
    <g
       id="g244"
       transform="matrix(1.25,0,0,-1.25,619.23086,306.92415)">
      <path
         inkscape:connector-curvature="0"
         d="m 0,0 -0.089,-0.221 -0.209,-0.086 -0.738,0 -0.208,0.09 L -1.34,0 l 0,5.017 c 0,0.5 -0.058,0.899 -0.171,1.194 -0.114,0.297 -0.295,0.506 -0.54,0.631 -0.246,0.123 -0.568,0.185 -0.964,0.185 -0.571,0 -1.259,-0.199 -2.063,-0.595 l 0,-6.432 -0.086,-0.217 -0.211,-0.09 -0.752,0 -0.202,0.09 -0.088,0.217 0,7.771 0.082,0.219 0.208,0.086 0.766,0 0.209,-0.086 0.074,-0.219 0,-0.283 c 0.427,0.238 0.831,0.414 1.214,0.529 0.382,0.114 0.786,0.17 1.213,0.17 0.903,0 1.571,-0.267 2.003,-0.802 C -0.216,6.848 0,6.059 0,5.017 L 0,0"
         style="fill:#41494f;fill-opacity:1;fill-rule:nonzero;stroke:none"
         id="path246" />
    </g>
    <g
       id="g248"
       transform="matrix(1.25,0,0,-1.25,623.71466,306.92415)">
      <path
         inkscape:connector-curvature="0"
         d="m 0,0 -0.088,-0.221 -0.216,-0.086 -0.73,0 -0.217,0.09 -0.088,0.217 0,7.771 0.086,0.217 0.219,0.088 0.73,0 c 0.093,0 0.168,-0.027 0.222,-0.082 C -0.027,7.939 0,7.865 0,7.771 L 0,0 z m 0.031,9.73 -0.09,-0.22 -0.216,-0.086 -0.774,0 -0.216,0.09 -0.089,0.216 0,1.213 0.085,0.215 0.22,0.09 0.774,0 c 0.095,0 0.169,-0.027 0.224,-0.082 0.054,-0.055 0.082,-0.129 0.082,-0.223 l 0,-1.213"
         style="fill:#41494f;fill-opacity:1;fill-rule:nonzero;stroke:none"
         id="path250" />
    </g>
    <g
       id="g252"
       transform="matrix(1.25,0,0,-1.25,633.02086,306.81415)">
      <path
         inkscape:connector-curvature="0"
         d="m 0,0 c 0,-0.184 -0.102,-0.295 -0.305,-0.334 -0.621,-0.11 -1.256,-0.164 -1.906,-0.164 -0.67,0 -1.253,0.15 -1.749,0.453 -0.497,0.303 -0.871,0.732 -1.125,1.289 -0.253,0.555 -0.379,1.209 -0.379,1.957 l 0,1.191 c 0,0.745 0.125,1.397 0.376,1.955 0.25,0.559 0.621,0.991 1.112,1.295 0.491,0.305 1.08,0.457 1.765,0.457 0.625,0 1.261,-0.056 1.906,-0.17 C -0.186,7.91 -0.106,7.875 -0.064,7.828 -0.021,7.781 0,7.703 0,7.594 L 0,7.043 C 0,6.894 -0.087,6.82 -0.261,6.82 l -0.06,0 c -0.629,0.068 -1.26,0.104 -1.89,0.104 -1.271,0 -1.906,-0.844 -1.906,-2.532 l 0,-1.191 c 0,-0.838 0.163,-1.469 0.488,-1.895 0.325,-0.423 0.798,-0.636 1.418,-0.636 0.645,0 1.275,0.037 1.89,0.113 l 0.06,0 C -0.087,0.783 0,0.705 0,0.551 L 0,0"
         style="fill:#41494f;fill-opacity:1;fill-rule:nonzero;stroke:none"
         id="path254" />
    </g>
    <g
       id="g256"
       transform="matrix(1.25,0,0,-1.25,640.77216,305.3054)">
      <path
         inkscape:connector-curvature="0"
         d="m 0,0 0,2.457 -1.124,0 C -2.023,2.457 -2.635,2.346 -2.963,2.125 -3.29,1.904 -3.454,1.515 -3.454,0.961 l 0,-0.188 c 0,-0.351 0.054,-0.631 0.16,-0.834 0.106,-0.203 0.261,-0.345 0.462,-0.427 0.2,-0.082 0.46,-0.123 0.777,-0.123 0.348,0 0.677,0.048 0.987,0.146 0.31,0.096 0.667,0.25 1.068,0.465 z m 1.348,-1.295 -0.097,-0.217 -0.208,-0.09 -0.708,0 -0.208,0.09 -0.09,0.217 0,0.334 c -0.253,-0.145 -0.507,-0.274 -0.763,-0.387 -0.256,-0.115 -0.518,-0.203 -0.789,-0.263 -0.27,-0.063 -0.537,-0.094 -0.801,-0.094 -0.724,0 -1.32,0.189 -1.786,0.568 -0.466,0.381 -0.7,1.012 -0.7,1.897 l 0,0.185 c 0,0.422 0.068,0.787 0.201,1.098 0.134,0.31 0.34,0.564 0.619,0.763 0.277,0.198 0.656,0.35 1.134,0.454 0.48,0.105 1.054,0.156 1.724,0.156 l 1.124,0 0,0.611 c 0,0.641 -0.121,1.086 -0.364,1.34 -0.243,0.254 -0.665,0.379 -1.266,0.379 -0.74,0 -1.517,-0.039 -2.33,-0.119 l -0.075,0 c -0.184,0 -0.276,0.082 -0.276,0.246 l 0,0.529 c 0,0.164 0.107,0.26 0.321,0.291 0.803,0.133 1.591,0.199 2.36,0.199 1.985,0 2.978,-0.955 2.978,-2.865 l 0,-5.322"
         style="fill:#41494f;fill-opacity:1;fill-rule:nonzero;stroke:none"
         id="path258" />
    </g>
    <g
       id="g260"
       transform="matrix(1.25,0,0,-1.25,195.39215,286.6479)">
      <path
         inkscape:connector-curvature="0"
         d="m 0,0 c 0,-15.936 -12.918,-28.854 -28.854,-28.854 -15.936,0 -28.854,12.918 -28.854,28.854 0,15.935 12.918,28.854 28.854,28.854 C -12.918,28.854 0,15.935 0,0"
         style="fill:#00b1ac;fill-opacity:1;fill-rule:nonzero;stroke:none"
         id="path262" />
    </g>
    <g
       id="g264"
       transform="matrix(1.25,0,0,-1.25,256.2609,286.6479)">
      <path
         inkscape:connector-curvature="0"
         d="m 0,0 c 0,-15.936 -12.919,-28.854 -28.855,-28.854 -15.935,0 -28.853,12.918 -28.853,28.854 0,15.935 12.918,28.854 28.853,28.854 C -12.919,28.854 0,15.935 0,0"
         style="fill:#f05169;fill-opacity:1;fill-rule:nonzero;stroke:none"
         id="path266" />
    </g>
    <g
       id="g268"
       transform="matrix(1.25,0,0,-1.25,230.3884,277.08415)">
      <path
         inkscape:connector-curvature="0"
         d="M 0,0 C 0,-1.514 -0.373,-2.854 -1.118,-4.018 -1.862,-5.182 -2.961,-6.252 -4.413,-7.23 L -7.68,-9.427 c -1.377,-0.926 -2.431,-1.685 -3.163,-2.281 -0.733,-0.594 -1.319,-1.242 -1.756,-1.943 -0.439,-0.702 -0.658,-1.471 -0.658,-2.309 l 0,-0.15 12.149,0 c 0.2,0 0.379,-0.073 0.535,-0.217 0.156,-0.143 0.234,-0.317 0.234,-0.516 l 0,-3.963 c 0,-0.213 -0.081,-0.392 -0.244,-0.543 -0.162,-0.15 -0.338,-0.226 -0.525,-0.226 l -17.106,0 c -0.212,0 -0.394,0.076 -0.545,0.226 -0.15,0.151 -0.225,0.33 -0.225,0.543 l 0,3.926 c 0,1.326 0.225,2.606 0.677,3.84 0.45,1.232 1.07,2.346 1.858,3.342 0.789,0.996 1.684,1.855 2.686,2.582 l 3.548,2.497 c 1.602,1.139 2.563,1.837 2.882,2.094 0.32,0.256 0.57,0.563 0.751,0.92 0.182,0.356 0.273,0.842 0.273,1.455 0,0.851 -0.298,1.448 -0.892,1.793 -0.595,0.344 -1.656,0.517 -3.183,0.517 -1.527,0 -4.049,-0.169 -7.567,-0.507 l -0.075,0 c -0.213,0 -0.382,0.075 -0.507,0.224 -0.125,0.151 -0.187,0.332 -0.187,0.545 l 0,3.004 c 0,0.326 0.244,0.571 0.732,0.733 1.201,0.35 2.516,0.635 3.942,0.854 1.428,0.219 2.842,0.329 4.245,0.329 1.764,0 3.276,-0.15 4.534,-0.451 1.258,-0.3 2.265,-0.751 3.023,-1.351 0.757,-0.601 1.32,-1.362 1.69,-2.282 C -0.185,2.338 0,1.251 0,0"
         style="fill:#ffffff;fill-opacity:1;fill-rule:nonzero;stroke:none"
         id="path270" />
    </g>
    <g
       id="g272"
       transform="matrix(1.25,0,0,-1.25,241.0584,276.77415)">
      <path
         inkscape:connector-curvature="0"
         d="M 0,0 0,0.843 C 0,1.539 -0.098,2.035 -0.297,2.333 -0.496,2.63 -0.814,2.78 -1.253,2.78 -1.683,2.78 -2.006,2.628 -2.221,2.327 -2.436,2.024 -2.544,1.53 -2.544,0.843 l 0,-0.843 c 0,-0.679 0.108,-1.169 0.323,-1.471 0.215,-0.303 0.538,-0.453 0.968,-0.453 0.43,0 0.747,0.15 0.95,0.453 C -0.101,-1.169 0,-0.679 0,0 z m 2.719,0 c 0,-0.927 -0.155,-1.704 -0.466,-2.328 -0.31,-0.625 -0.761,-1.09 -1.352,-1.396 -0.592,-0.307 -1.31,-0.46 -2.154,-0.46 -1.274,0 -2.257,0.352 -2.948,1.056 -0.691,0.703 -1.036,1.746 -1.036,3.128 l 0,0.843 c 0,0.927 0.155,1.704 0.465,2.333 0.311,0.629 0.764,1.101 1.359,1.415 0.596,0.315 1.316,0.472 2.16,0.472 0.844,0 1.562,-0.157 2.154,-0.472 C 1.492,4.277 1.943,3.805 2.253,3.176 2.564,2.547 2.719,1.77 2.719,0.843 L 2.719,0"
         style="fill:#ffffff;fill-opacity:1;fill-rule:nonzero;stroke:none"
         id="path274" />
    </g>
    <g
       id="g276"
       transform="matrix(1.25,0,0,-1.25,168.8959,291.63165)">
      <path
         inkscape:connector-curvature="0"
         d="m 0,0 -2.234,11.033 c -1.623,0.504 -3.115,-2.08 -3.115,-2.08 0,0 -1.277,2.674 -1.787,2.582 -0.755,-0.137 -1.257,-0.299 -1.257,-0.299 L -10.695,0 c 1.428,-0.976 2.83,-1.449 4.125,-1.611 l 0.477,-5.836 c 0,0 2.234,0.707 2.932,6.053 C -1.242,-0.914 0,0 0,0"
         style="fill:#ffffff;fill-opacity:1;fill-rule:nonzero;stroke:none"
         id="path278" />
    </g>
    <g
       id="g280"
       transform="matrix(1.25,0,0,-1.25,161.1034,275.29415)">
      <path
         inkscape:connector-curvature="0"
         d="M 0,0 C 0.959,-0.211 2.538,0.406 2.956,1.127 3.315,1.867 2.753,3.483 1.879,4.129 0.985,4.699 -0.688,4.098 -1.17,3.014 -1.578,1.897 -0.921,0.266 0,0"
         style="fill:#ffffff;fill-opacity:1;fill-rule:nonzero;stroke:none"
         id="path282" />
    </g>
    <g
       id="g284"
       transform="matrix(1.25,0,0,-1.25,145.3259,274.8429)">
      <path
         inkscape:connector-curvature="0"
         d="M 0,0 C 0.768,-0.343 2.193,0.04 2.663,0.692 3.087,1.372 2.887,3.043 2.261,3.804 1.609,4.493 0.108,4.137 -0.475,3.137 -1.002,2.092 -0.726,0.393 0,0"
         style="fill:#ffffff;fill-opacity:1;fill-rule:nonzero;stroke:none"
         id="path286" />
    </g>
    <g
       id="g288"
       transform="matrix(1.25,0,0,-1.25,147.0609,276.41665)">
      <path
         inkscape:connector-curvature="0"
         d="m 0,0 c -3.587,0 -4.94,-1.153 -4.94,-1.153 0,0 0,-2.232 0,-5.685 0,-2.209 1.602,-3.584 2.759,-4.293 l 0.411,-8.443 c 0,0 3.694,-0.408 3.809,8.865 2.338,1.305 2.498,3.194 2.498,3.194 l 0,5.89 C 4.537,-1.625 3.589,0 0,0"
         style="fill:#ffffff;fill-opacity:1;fill-rule:nonzero;stroke:none"
         id="path290" />
    </g>
    <g
       id="g292"
       transform="matrix(1.25,0,0,-1.25,132.84215,286.12165)">
      <path
         inkscape:connector-curvature="0"
         d="M 0,0 C 0.761,-0.339 2.174,0.04 2.641,0.688 3.061,1.363 2.864,3.021 2.242,3.777 1.596,4.461 0.106,4.107 -0.472,3.113 -0.996,2.078 -0.722,0.391 0,0"
         style="fill:#ffffff;fill-opacity:1;fill-rule:nonzero;stroke:none"
         id="path294" />
    </g>
    <g
       id="g296"
       transform="matrix(1.25,0,0,-1.25,134.33715,286.7479)">
      <path
         inkscape:connector-curvature="0"
         d="m 0,0 c -2.38,0 -2.523,-0.61 -2.523,-0.61 0,0 -0.751,-1.633 -0.751,-3.922 0,-1.463 1.061,-2.373 1.827,-2.842 l 0.271,-3.98 c 0,0 2.526,0.361 2.526,4.258 1.547,0.865 1.651,1.445 1.655,2.117 C 3.009,-3.86 2.201,-0.565 2.201,-0.565 2.201,-0.565 1.118,0 0,0"
         style="fill:#ffffff;fill-opacity:1;fill-rule:nonzero;stroke:none"
         id="path298" />
    </g>
    <g
       id="g300"
       transform="matrix(1.25,0,0,-1.25,176.3659,286.7479)">
      <path
         inkscape:connector-curvature="0"
         d="m 0,0 c -2.377,0 -2.523,-0.61 -2.523,-0.61 0,0 -0.752,-4.023 -0.752,-6.31 0,0 0.937,-0.11 1.828,-0.454 l 0.272,-3.98 c 0,0 2.525,0.871 2.525,4.258 0.543,0.135 1.653,-0.031 1.653,-0.031 L 2.182,-0.565 C 2.182,-0.565 1.117,0 0,0"
         style="fill:#ffffff;fill-opacity:1;fill-rule:nonzero;stroke:none"
         id="path302" />
    </g>
    <g
       id="g304"
       transform="matrix(1.25,0,0,-1.25,180.1134,284.97915)">
      <path
         inkscape:connector-curvature="0"
         d="M 0,0 C -0.349,0.338 -0.813,0.477 -1.26,0.428 -1.15,1.035 -1.206,1.744 -1.476,2.221 -1.987,2.99 -3.585,3.057 -4.397,2.33 -4.865,1.85 -5.08,1.078 -5.029,0.43 -5.466,0.469 -5.917,0.33 -6.258,0 c -0.365,-0.351 -0.524,-0.837 -0.47,-1.306 0.47,-0.207 1.037,-0.123 1.429,0.256 l 0.606,0.588 0.088,-0.084 c 0.703,-0.498 2.229,-0.522 2.85,-0.069 l 0.16,0.178 0.634,-0.613 c 0.393,-0.379 0.96,-0.463 1.43,-0.256 C 0.523,-0.837 0.367,-0.351 0,0"
         style="fill:#ffffff;fill-opacity:1;fill-rule:nonzero;stroke:none"
         id="path306" />
    </g>
    <g
       id="g308"
       transform="matrix(1.25,0,0,-1.25,184.1259,286.6479)">
      <path
         inkscape:connector-curvature="0"
         d="M 0,0 C 0,-5.696 1.657,-11.002 4.506,-15.477 7.356,-11.002 9.013,-5.696 9.013,0 9.013,5.696 7.356,11.003 4.506,15.476 1.657,11.003 0,5.696 0,0"
         style="fill:#41494f;fill-opacity:1;fill-rule:nonzero;stroke:none"
         id="path310" />
    </g>
  </g>
</svg>
